<svg id="svg" version="1.1" xmlns="http://www.w3.org/2000/svg" xmlns:xlink="http://www.w3.org/1999/xlink" width="400" height="400" viewBox="0, 0, 400,400"><g id="svgg"><path id="path0" d="M153.570 187.568 C 128.087 244.733,107.181 291.658,107.113 291.846 C 106.996 292.170,107.895 292.187,124.268 292.187 L 141.547 292.187 150.914 268.799 L 160.280 245.410 199.710 245.361 C 225.770 245.328,239.206 245.378,239.335 245.507 C 239.442 245.614,243.709 256.139,248.818 268.896 L 258.105 292.090 275.452 292.140 C 284.992 292.167,292.757 292.123,292.708 292.042 C 292.659 291.961,271.819 245.093,246.397 187.891 C 220.974 130.688,200.113 83.829,200.038 83.759 C 199.964 83.689,179.053 130.403,153.570 187.568 M213.530 183.643 C 220.905 201.394,226.996 216.072,227.065 216.260 C 227.184 216.584,225.813 216.602,200.000 216.602 C 174.187 216.602,172.816 216.584,172.935 216.260 C 173.593 214.468,199.911 151.367,200.001 151.367 C 200.066 151.367,206.155 165.891,213.530 183.643 " stroke="none" fill="#fbfbfb" fill-rule="evenodd"></path><path id="path1" d="M125.586 74.421 C 84.712 89.014,51.195 100.984,51.103 101.021 C 50.977 101.071,73.555 298.043,73.701 298.170 C 73.717 298.185,102.143 313.932,136.869 333.164 L 200.008 368.131 263.139 333.167 C 297.861 313.937,326.284 298.190,326.302 298.174 C 326.389 298.095,349.044 101.128,348.975 101.058 C 348.900 100.984,199.930 47.829,199.911 47.870 C 199.906 47.880,166.460 59.828,125.586 74.421 M246.331 187.453 C 271.760 244.681,292.622 291.658,292.691 291.847 C 292.810 292.172,291.936 292.187,275.396 292.140 L 257.975 292.090 248.665 268.848 L 239.355 245.605 199.879 245.556 L 160.402 245.507 151.051 268.843 L 141.699 292.179 124.251 292.183 C 113.289 292.186,106.828 292.118,106.868 292.002 C 107.163 291.160,199.912 83.399,199.992 83.400 C 200.050 83.401,220.903 130.225,246.331 187.453 M199.558 152.539 C 197.881 156.331,173.008 216.432,173.084 216.508 C 173.136 216.560,185.304 216.581,200.125 216.553 L 227.071 216.504 213.834 184.668 C 206.554 167.158,200.470 152.524,200.315 152.148 L 200.033 151.465 199.558 152.539 " stroke="none" fill="#cf042c" fill-rule="evenodd"></path><path id="path2" d="" stroke="none" fill="#e1597b" fill-rule="evenodd"></path><path id="path3" d="M160.284 245.459 C 160.202 245.591,187.128 245.591,225.098 245.458 C 232.939 245.430,221.585 245.386,199.865 245.360 C 178.145 245.334,160.334 245.378,160.284 245.459 " stroke="none" fill="#e58a9c" fill-rule="evenodd"></path><path id="path4" d="" stroke="none" fill="#e41848" fill-rule="evenodd"></path></g></svg>