<svg id="svg" version="1.1" xmlns="http://www.w3.org/2000/svg" xmlns:xlink="http://www.w3.org/1999/xlink" width="400" height="400" viewBox="0, 0, 400,400"><g id="svgg"><path id="path0" d="M180.412 136.100 C 179.915 138.575,179.367 141.410,179.194 142.400 C 178.850 144.375,178.139 147.997,177.545 150.800 C 177.335 151.790,176.986 153.500,176.769 154.600 C 176.552 155.700,176.206 157.410,176.000 158.400 C 175.523 160.692,174.942 163.599,174.400 166.400 C 174.166 167.610,173.807 169.410,173.602 170.400 C 173.398 171.390,173.125 172.830,172.996 173.600 C 172.867 174.370,172.605 175.720,172.413 176.600 C 172.222 177.480,171.870 179.190,171.631 180.400 C 171.393 181.610,170.905 184.040,170.547 185.800 C 169.671 190.110,169.274 192.186,168.827 194.800 C 168.289 197.944,164.180 218.797,163.191 223.400 C 163.002 224.280,162.760 225.540,162.652 226.200 C 162.544 226.860,162.334 227.715,162.185 228.100 C 161.931 228.756,162.612 228.800,173.130 228.800 C 183.701 228.800,184.360 228.757,184.581 228.058 C 184.711 227.650,185.072 225.895,185.385 224.158 C 185.697 222.421,186.414 218.750,186.978 216.000 C 187.542 213.250,188.197 210.010,188.434 208.800 C 188.671 207.590,189.016 205.880,189.200 205.000 C 189.384 204.120,189.744 202.320,190.000 201.000 C 190.256 199.680,190.616 197.880,190.800 197.000 C 190.984 196.120,191.343 194.320,191.597 193.000 C 191.852 191.680,192.219 189.970,192.413 189.200 C 192.608 188.430,192.871 187.170,192.999 186.400 C 193.126 185.630,193.403 184.145,193.615 183.100 C 193.827 182.055,194.173 180.345,194.385 179.300 C 194.597 178.255,194.887 176.813,195.031 176.096 C 195.387 174.318,195.531 174.299,207.548 174.460 L 217.926 174.600 219.446 175.830 C 222.014 177.909,222.017 180.145,219.470 193.000 C 219.121 194.760,218.376 198.720,217.815 201.800 C 217.253 204.880,216.627 208.210,216.424 209.200 C 216.220 210.190,215.665 213.160,215.191 215.800 C 214.717 218.440,214.179 221.230,213.996 222.000 C 213.409 224.474,212.800 227.644,212.800 228.231 C 212.800 228.710,214.649 228.800,224.528 228.800 L 236.255 228.800 236.980 224.500 C 237.378 222.135,237.861 219.255,238.052 218.100 C 238.243 216.945,238.580 214.965,238.799 213.700 C 239.018 212.435,239.393 210.230,239.631 208.800 C 239.869 207.370,240.223 205.300,240.418 204.200 C 240.612 203.100,240.971 201.030,241.215 199.600 C 241.459 198.170,241.831 196.010,242.043 194.800 C 242.465 192.381,242.997 189.235,243.579 185.700 C 243.787 184.435,244.179 182.320,244.449 181.000 C 244.992 178.351,245.092 172.872,244.633 171.000 C 243.883 167.947,239.628 162.000,238.193 162.000 C 237.904 162.000,237.607 161.865,237.533 161.700 C 237.460 161.535,236.500 160.975,235.400 160.456 C 234.300 159.937,233.087 159.352,232.705 159.156 C 232.323 158.960,231.659 158.800,231.229 158.800 C 230.799 158.800,230.348 158.639,230.226 158.442 C 229.778 157.718,226.293 157.496,212.900 157.340 L 199.200 157.180 199.200 155.996 C 199.200 155.344,199.376 154.044,199.590 153.106 C 199.805 152.168,200.451 148.790,201.026 145.600 C 201.601 142.410,202.416 138.098,202.836 136.018 C 203.256 133.938,203.600 132.093,203.600 131.918 C 203.600 131.743,198.586 131.600,192.458 131.600 L 181.316 131.600 180.412 136.100 M92.988 157.894 C 92.822 158.282,92.526 159.500,92.330 160.600 C 92.134 161.700,91.800 163.455,91.587 164.500 C 91.165 166.573,90.570 169.585,90.027 172.400 C 89.463 175.324,88.753 178.873,88.345 180.800 C 88.136 181.790,87.874 183.140,87.763 183.800 C 87.652 184.460,87.405 185.720,87.213 186.600 C 87.022 187.480,86.673 189.190,86.439 190.400 C 85.910 193.128,83.944 203.124,82.781 209.000 C 81.438 215.784,81.233 216.836,80.802 219.200 C 80.320 221.840,79.669 225.144,79.146 227.600 C 78.538 230.460,78.065 232.817,77.584 235.400 C 76.875 239.204,76.469 241.252,76.000 243.400 C 74.817 248.818,74.062 253.529,74.334 253.800 C 74.443 253.910,79.341 254.000,85.218 254.000 C 97.075 254.000,96.538 254.128,96.947 251.200 C 97.237 249.120,97.718 246.409,98.400 243.000 C 99.166 239.174,99.540 237.167,99.967 234.600 C 100.187 233.280,100.517 231.480,100.701 230.600 L 101.035 229.000 115.418 228.754 C 123.328 228.619,130.700 228.315,131.800 228.079 C 132.900 227.843,134.340 227.535,135.000 227.395 C 135.660 227.254,136.605 226.973,137.100 226.770 C 137.595 226.566,138.405 226.239,138.900 226.042 C 141.458 225.024,146.315 222.523,146.800 221.974 C 146.910 221.849,147.810 221.189,148.800 220.506 C 150.873 219.077,156.235 213.663,157.621 211.600 C 158.138 210.830,158.660 210.110,158.781 210.000 C 159.228 209.592,162.185 203.860,162.857 202.100 C 163.046 201.605,163.363 200.795,163.563 200.300 C 163.763 199.805,164.134 198.500,164.388 197.400 C 164.642 196.300,165.009 194.770,165.203 194.000 C 166.730 187.947,166.363 178.396,164.414 173.400 C 162.235 167.818,155.286 160.400,152.235 160.400 C 151.886 160.400,151.600 160.220,151.600 160.000 C 151.600 159.780,151.161 159.600,150.624 159.600 C 150.087 159.600,149.549 159.441,149.429 159.246 C 149.308 159.051,148.713 158.790,148.105 158.664 C 147.497 158.539,146.100 158.216,145.000 157.947 C 141.334 157.050,93.370 157.002,92.988 157.894 M253.864 158.900 C 253.745 159.835,253.463 161.500,253.239 162.600 C 253.015 163.700,252.663 165.590,252.457 166.800 C 252.118 168.797,250.165 178.750,249.240 183.200 C 249.034 184.190,248.659 186.170,248.406 187.600 C 248.153 189.030,247.766 191.010,247.545 192.000 C 246.673 195.912,246.513 196.713,245.170 203.900 C 244.934 205.165,244.581 206.830,244.387 207.600 C 244.192 208.370,243.929 209.630,243.801 210.400 C 243.674 211.170,243.397 212.655,243.185 213.700 C 242.465 217.252,241.969 219.796,241.606 221.800 C 241.406 222.900,241.045 224.700,240.803 225.800 C 240.271 228.221,239.694 231.111,239.206 233.800 C 239.006 234.900,238.646 236.700,238.405 237.800 C 238.164 238.900,237.808 240.700,237.612 241.800 C 237.417 242.900,237.044 244.790,236.785 246.000 C 236.000 249.653,235.649 251.742,235.624 252.900 L 235.600 254.000 246.553 254.000 L 257.507 254.000 257.781 252.900 C 257.932 252.295,258.216 250.900,258.412 249.800 C 258.608 248.700,258.956 246.855,259.184 245.700 C 259.413 244.545,259.787 242.655,260.016 241.500 C 260.244 240.345,260.597 238.500,260.800 237.400 C 261.132 235.601,261.380 234.336,262.228 230.114 L 262.487 228.828 276.943 228.671 C 285.387 228.579,292.232 228.330,293.400 228.072 C 294.500 227.829,295.987 227.513,296.705 227.369 C 297.423 227.225,298.108 226.949,298.229 226.754 C 298.349 226.559,298.715 226.400,299.043 226.400 C 299.371 226.400,300.384 226.040,301.294 225.600 C 302.205 225.160,303.171 224.800,303.442 224.800 C 303.712 224.800,303.993 224.665,304.067 224.500 C 304.140 224.335,305.032 223.779,306.049 223.263 C 313.052 219.716,321.377 209.804,324.412 201.400 C 324.570 200.960,324.903 200.097,325.150 199.481 C 325.398 198.866,325.600 197.931,325.600 197.405 C 325.600 196.878,325.757 196.350,325.948 196.232 C 327.282 195.408,327.342 177.462,326.022 174.200 C 322.891 166.464,318.470 162.049,311.000 159.197 C 310.150 158.872,308.207 158.360,305.094 157.641 C 303.817 157.345,295.090 157.200,278.635 157.200 L 254.081 157.200 253.864 158.900 M133.800 175.191 C 134.460 175.478,135.604 175.974,136.341 176.295 C 142.114 178.800,143.726 184.952,141.138 194.600 C 139.447 200.904,135.500 206.374,131.312 208.216 C 125.682 210.694,124.350 210.909,114.400 210.959 L 106.200 211.000 106.244 209.600 C 106.283 208.337,106.576 206.310,107.601 200.200 C 107.785 199.100,108.145 196.940,108.400 195.400 C 108.843 192.728,109.142 190.993,109.971 186.300 C 110.537 183.096,111.171 179.200,111.452 177.200 C 111.878 174.163,111.379 174.285,122.588 174.489 C 129.572 174.615,132.963 174.828,133.800 175.191 M294.883 175.123 C 295.145 175.385,295.679 175.600,296.068 175.600 C 298.710 175.600,302.453 179.368,303.547 183.128 C 304.144 185.183,303.218 192.920,301.934 196.600 C 299.682 203.058,293.285 209.600,289.224 209.600 C 288.859 209.600,288.389 209.762,288.180 209.959 C 287.285 210.805,268.318 211.678,267.549 210.909 C 267.363 210.723,267.476 209.047,267.801 207.185 C 268.125 205.323,268.653 202.090,268.974 200.000 C 269.294 197.910,269.831 194.580,270.166 192.600 C 270.500 190.620,270.972 187.740,271.213 186.200 C 271.455 184.660,271.821 182.749,272.026 181.954 C 272.232 181.158,272.400 179.970,272.400 179.313 C 272.400 178.657,272.596 177.508,272.835 176.760 C 273.075 176.012,273.348 175.152,273.442 174.849 C 273.673 174.109,294.130 174.370,294.883 175.123 " stroke="none" fill="#1c242c" fill-rule="evenodd"></path><path id="path1" d="M203.450 134.450 C 203.117 136.117,203.440 136.440,203.800 134.800 C 203.952 134.109,203.993 133.459,203.891 133.358 C 203.789 133.256,203.591 133.747,203.450 134.450 M179.800 135.600 C 179.648 136.291,179.607 136.941,179.709 137.042 C 179.811 137.144,180.009 136.653,180.150 135.950 C 180.483 134.283,180.160 133.960,179.800 135.600 M202.629 138.629 C 202.481 139.215,202.451 139.784,202.561 139.894 C 202.671 140.004,202.881 139.615,203.029 139.029 C 203.176 138.442,203.206 137.873,203.096 137.763 C 202.986 137.653,202.776 138.042,202.629 138.629 M179.056 139.284 C 178.921 139.788,178.827 140.560,178.846 141.000 C 178.865 141.440,179.045 141.098,179.246 140.240 C 179.636 138.578,179.470 137.740,179.056 139.284 M201.822 143.022 C 201.672 143.825,201.628 144.562,201.726 144.660 C 201.824 144.757,202.027 144.181,202.178 143.378 C 202.328 142.575,202.372 141.838,202.274 141.740 C 202.176 141.643,201.973 142.219,201.822 143.022 M178.249 143.015 C 178.112 143.373,178.018 144.146,178.040 144.733 C 178.073 145.591,178.152 145.495,178.446 144.240 C 178.822 142.639,178.695 141.853,178.249 143.015 M201.000 147.200 C 200.848 147.891,200.807 148.541,200.909 148.642 C 201.011 148.744,201.209 148.253,201.350 147.550 C 201.683 145.883,201.360 145.560,201.000 147.200 M177.400 147.600 C 177.248 148.291,177.207 148.941,177.309 149.042 C 177.411 149.144,177.609 148.653,177.750 147.950 C 178.083 146.283,177.760 145.960,177.400 147.600 M200.200 151.200 C 200.048 151.891,200.014 152.547,200.124 152.657 C 200.234 152.767,200.448 152.291,200.600 151.600 C 200.752 150.909,200.786 150.253,200.676 150.143 C 200.566 150.033,200.352 150.509,200.200 151.200 M176.649 151.415 C 176.512 151.773,176.416 152.456,176.436 152.933 C 176.462 153.547,176.585 153.408,176.859 152.456 C 177.257 151.072,177.094 150.258,176.649 151.415 M175.856 155.284 C 175.721 155.788,175.627 156.560,175.646 157.000 C 175.665 157.440,175.845 157.098,176.046 156.240 C 176.436 154.578,176.270 153.740,175.856 155.284 M199.512 155.100 C 199.071 156.799,199.112 156.804,211.733 156.709 L 223.800 156.618 211.800 156.409 L 199.800 156.200 199.925 155.300 C 200.073 154.237,199.773 154.092,199.512 155.100 M92.414 157.174 C 92.186 157.599,92.014 158.364,92.032 158.874 C 92.065 159.865,92.188 159.646,92.572 157.903 L 92.814 156.806 116.507 156.700 L 140.200 156.594 116.514 156.497 C 93.454 156.403,92.817 156.420,92.414 157.174 M265.929 156.700 C 272.599 156.761,283.399 156.761,289.929 156.700 C 296.458 156.638,291.000 156.588,277.800 156.588 C 264.600 156.588,259.258 156.638,265.929 156.700 M141.633 156.944 C 141.725 157.024,142.610 157.196,143.600 157.327 C 144.802 157.486,145.134 157.447,144.600 157.210 C 143.836 156.872,141.286 156.643,141.633 156.944 M224.833 156.945 C 224.925 157.025,225.801 157.192,226.779 157.318 C 227.930 157.465,228.354 157.416,227.979 157.179 C 227.445 156.840,224.458 156.619,224.833 156.945 M302.833 156.945 C 302.925 157.025,303.801 157.192,304.779 157.318 C 305.930 157.465,306.354 157.416,305.979 157.179 C 305.445 156.840,302.458 156.619,302.833 156.945 M253.450 158.450 C 253.117 160.117,253.440 160.440,253.800 158.800 C 253.952 158.109,253.993 157.459,253.891 157.358 C 253.789 157.256,253.591 157.747,253.450 158.450 M145.633 157.743 C 145.725 157.821,146.430 158.001,147.200 158.142 C 148.185 158.323,148.422 158.282,148.000 158.006 C 147.458 157.650,145.237 157.403,145.633 157.743 M229.233 157.744 C 229.325 157.823,229.940 158.008,230.600 158.156 C 231.476 158.352,231.638 158.315,231.200 158.018 C 230.660 157.653,228.832 157.398,229.233 157.744 M307.233 157.744 C 307.325 157.823,307.940 158.008,308.600 158.156 C 309.476 158.352,309.638 158.315,309.200 158.018 C 308.660 157.653,306.832 157.398,307.233 157.744 M175.056 159.284 C 174.921 159.788,174.827 160.560,174.846 161.000 C 174.865 161.440,175.045 161.098,175.246 160.240 C 175.636 158.578,175.470 157.740,175.056 159.284 M237.407 161.054 C 238.283 161.633,239.809 162.848,240.798 163.754 L 242.596 165.400 241.198 163.862 C 239.809 162.334,236.749 160.000,236.135 160.000 C 235.959 160.000,236.531 160.474,237.407 161.054 M314.033 160.129 C 314.693 160.639,318.000 162.394,318.000 162.234 C 318.000 161.976,314.636 160.000,314.198 160.000 C 314.016 160.000,313.942 160.058,314.033 160.129 M91.456 161.284 C 91.321 161.788,91.228 162.650,91.249 163.200 C 91.272 163.789,91.431 163.471,91.636 162.425 C 92.003 160.552,91.873 159.727,91.456 161.284 M252.622 162.222 C 252.472 163.025,252.428 163.762,252.526 163.860 C 252.624 163.957,252.827 163.381,252.978 162.578 C 253.128 161.775,253.172 161.038,253.074 160.940 C 252.976 160.843,252.773 161.419,252.622 162.222 M158.158 163.700 C 158.979 164.415,160.224 165.639,160.925 166.421 C 161.626 167.202,161.936 167.472,161.614 167.021 C 160.585 165.579,157.444 162.400,157.048 162.400 C 156.838 162.400,157.338 162.985,158.158 163.700 M320.400 164.600 C 321.595 165.810,322.663 166.800,322.773 166.800 C 322.883 166.800,321.995 165.810,320.800 164.600 C 319.605 163.390,318.537 162.400,318.427 162.400 C 318.317 162.400,319.205 163.390,320.400 164.600 M174.256 163.684 C 174.121 164.188,174.027 164.960,174.046 165.400 C 174.065 165.840,174.245 165.498,174.446 164.640 C 174.836 162.978,174.670 162.140,174.256 163.684 M90.656 165.284 C 90.521 165.788,90.428 166.650,90.449 167.200 C 90.472 167.789,90.631 167.471,90.836 166.425 C 91.203 164.552,91.073 163.727,90.656 165.284 M242.818 165.660 C 242.808 165.803,243.248 166.883,243.796 168.060 C 244.344 169.237,244.786 169.930,244.778 169.600 C 244.764 169.004,242.853 165.162,242.818 165.660 M173.449 167.415 C 173.312 167.773,173.221 168.546,173.246 169.133 C 173.280 169.932,173.370 169.798,173.604 168.600 C 173.935 166.900,173.862 166.340,173.449 167.415 M89.849 169.015 C 89.712 169.373,89.623 170.236,89.650 170.933 C 89.692 171.987,89.750 171.898,89.999 170.400 C 90.317 168.486,90.259 167.948,89.849 169.015 M163.281 170.191 C 163.759 171.176,164.219 171.914,164.303 171.830 C 164.484 171.649,162.868 168.400,162.597 168.400 C 162.494 168.400,162.802 169.206,163.281 170.191 M251.000 170.400 C 250.848 171.091,250.814 171.747,250.924 171.857 C 251.034 171.967,251.248 171.491,251.400 170.800 C 251.552 170.109,251.586 169.453,251.476 169.343 C 251.366 169.233,251.152 169.709,251.000 170.400 M245.096 172.246 C 245.212 173.321,245.372 174.275,245.453 174.367 C 245.772 174.729,245.565 171.365,245.237 170.846 C 245.022 170.507,244.968 171.051,245.096 172.246 M172.454 172.800 C 172.419 173.350,172.296 174.250,172.183 174.800 L 171.977 175.800 172.407 174.815 C 172.643 174.274,172.765 173.374,172.678 172.815 L 172.520 171.800 172.454 172.800 M164.856 173.600 C 164.856 173.930,165.011 174.560,165.200 175.000 C 165.417 175.504,165.544 175.578,165.544 175.200 C 165.544 174.870,165.389 174.240,165.200 173.800 C 164.983 173.296,164.856 173.222,164.856 173.600 M250.250 174.450 C 249.917 176.117,250.240 176.440,250.600 174.800 C 250.752 174.109,250.793 173.459,250.691 173.358 C 250.589 173.256,250.391 173.747,250.250 174.450 M112.138 175.417 C 112.008 175.757,112.013 176.147,112.151 176.284 C 112.288 176.421,112.400 176.237,112.400 175.874 C 112.400 175.283,113.388 175.203,121.900 175.100 L 131.400 174.985 121.887 174.892 C 113.626 174.812,112.344 174.881,112.138 175.417 M200.700 175.099 C 203.615 175.167,208.385 175.167,211.300 175.099 C 214.215 175.031,211.830 174.975,206.000 174.975 C 200.170 174.975,197.785 175.031,200.700 175.099 M278.300 175.099 C 280.995 175.168,285.405 175.168,288.100 175.099 C 290.795 175.030,288.590 174.973,283.200 174.973 C 277.810 174.973,275.605 175.030,278.300 175.099 M132.600 175.600 C 133.040 175.789,133.670 175.944,134.000 175.944 C 134.378 175.944,134.304 175.817,133.800 175.600 C 133.360 175.411,132.730 175.256,132.400 175.256 C 132.022 175.256,132.096 175.383,132.600 175.600 M294.000 175.582 C 294.330 175.805,294.945 175.991,295.367 175.994 C 296.390 176.002,296.071 175.773,294.600 175.444 C 293.724 175.248,293.562 175.285,294.000 175.582 M195.254 176.400 C 195.219 176.950,195.096 177.850,194.983 178.400 L 194.777 179.400 195.207 178.415 C 195.443 177.874,195.565 176.974,195.478 176.415 L 195.320 175.400 195.254 176.400 M273.054 177.154 C 272.900 178.118,272.858 178.991,272.961 179.094 C 273.230 179.363,273.715 176.545,273.507 175.922 C 273.412 175.636,273.208 176.190,273.054 177.154 M165.687 176.800 C 165.683 177.350,165.824 178.250,166.000 178.800 C 166.431 180.144,166.431 178.692,166.000 177.000 C 165.726 175.922,165.694 175.902,165.687 176.800 M171.693 177.200 C 171.693 177.970,171.775 178.285,171.876 177.900 C 171.976 177.515,171.976 176.885,171.876 176.500 C 171.775 176.115,171.693 176.430,171.693 177.200 M245.272 177.667 C 245.232 178.694,245.096 179.864,244.970 180.267 C 244.754 180.954,244.768 180.956,245.192 180.297 C 245.440 179.910,245.576 178.740,245.494 177.697 L 245.344 175.800 245.272 177.667 M137.884 177.821 C 138.590 178.377,139.639 179.410,140.216 180.116 C 140.793 180.822,141.080 181.024,140.853 180.566 C 140.411 179.668,137.392 176.797,136.899 176.804 C 136.734 176.807,137.178 177.264,137.884 177.821 M298.600 177.405 C 299.040 177.763,299.583 178.177,299.807 178.327 C 300.030 178.477,300.705 179.199,301.307 179.931 C 301.908 180.663,302.400 181.111,302.400 180.926 C 302.400 180.338,299.837 177.698,298.800 177.218 C 297.836 176.772,297.829 176.779,298.600 177.405 M111.659 178.200 C 111.620 178.860,111.496 179.850,111.383 180.400 L 111.177 181.400 111.608 180.414 C 111.844 179.872,111.968 178.882,111.883 178.214 L 111.728 177.000 111.659 178.200 M249.450 178.450 C 249.117 180.117,249.440 180.440,249.800 178.800 C 249.952 178.109,249.993 177.459,249.891 177.358 C 249.789 177.256,249.591 177.747,249.450 178.450 M327.293 178.400 C 327.293 179.170,327.375 179.485,327.476 179.100 C 327.576 178.715,327.576 178.085,327.476 177.700 C 327.375 177.315,327.293 177.630,327.293 178.400 M220.931 180.600 C 220.933 182.140,221.005 182.721,221.092 181.891 C 221.179 181.061,221.177 179.801,221.089 179.091 C 221.000 178.381,220.929 179.060,220.931 180.600 M194.454 180.400 C 194.419 180.950,194.296 181.850,194.183 182.400 L 193.977 183.400 194.407 182.415 C 194.643 181.874,194.765 180.974,194.678 180.415 L 194.520 179.400 194.454 180.400 M170.893 181.200 C 170.893 181.970,170.975 182.285,171.076 181.900 C 171.176 181.515,171.176 180.885,171.076 180.500 C 170.975 180.115,170.893 180.430,170.893 181.200 M272.240 182.440 C 272.093 183.357,272.052 184.185,272.147 184.280 C 272.242 184.376,272.446 183.710,272.600 182.800 C 272.754 181.890,272.796 181.062,272.693 180.960 C 272.590 180.857,272.387 181.523,272.240 182.440 M327.744 184.400 C 327.744 186.490,327.812 187.345,327.894 186.300 C 327.976 185.255,327.976 183.545,327.894 182.500 C 327.812 181.455,327.744 182.310,327.744 184.400 M166.542 184.600 C 166.541 186.580,166.608 187.440,166.692 186.512 C 166.776 185.584,166.777 183.964,166.695 182.912 C 166.612 181.860,166.543 182.620,166.542 184.600 M248.650 182.450 C 248.317 184.117,248.640 184.440,249.000 182.800 C 249.152 182.109,249.193 181.459,249.091 181.358 C 248.989 181.256,248.791 181.747,248.650 182.450 M141.256 182.000 C 141.256 182.330,141.411 182.960,141.600 183.400 C 141.817 183.904,141.944 183.978,141.944 183.600 C 141.944 183.270,141.789 182.640,141.600 182.200 C 141.383 181.696,141.256 181.622,141.256 182.000 M244.459 182.600 C 244.420 183.260,244.296 184.250,244.183 184.800 L 243.977 185.800 244.408 184.814 C 244.644 184.272,244.768 183.282,244.683 182.614 L 244.528 181.400 244.459 182.600 M302.644 182.600 C 302.973 184.071,303.202 184.390,303.194 183.367 C 303.191 182.945,303.005 182.330,302.782 182.000 C 302.485 181.562,302.448 181.724,302.644 182.600 M110.655 183.855 C 110.513 184.886,110.474 185.808,110.569 185.902 C 110.663 185.996,110.865 185.239,111.018 184.218 C 111.171 183.198,111.210 182.276,111.104 182.171 C 110.998 182.065,110.796 182.823,110.655 183.855 M87.249 183.000 C 87.216 183.440,87.096 184.250,86.983 184.800 L 86.777 185.800 87.206 184.819 C 87.442 184.279,87.561 183.469,87.472 183.019 C 87.313 182.221,87.307 182.221,87.249 183.000 M193.654 184.400 C 193.619 184.950,193.496 185.850,193.383 186.400 L 193.177 187.400 193.607 186.415 C 193.843 185.874,193.965 184.974,193.878 184.415 L 193.720 183.400 193.654 184.400 M170.049 185.000 C 170.016 185.440,169.896 186.250,169.783 186.800 L 169.577 187.800 170.006 186.819 C 170.242 186.279,170.361 185.469,170.272 185.019 C 170.113 184.221,170.107 184.221,170.049 185.000 M247.822 186.622 C 247.672 187.425,247.628 188.162,247.726 188.260 C 247.824 188.357,248.027 187.781,248.178 186.978 C 248.328 186.175,248.372 185.438,248.274 185.340 C 248.176 185.243,247.973 185.819,247.822 186.622 M219.840 187.240 C 219.693 188.157,219.652 188.985,219.747 189.080 C 219.842 189.176,220.046 188.510,220.200 187.600 C 220.354 186.690,220.396 185.862,220.293 185.760 C 220.190 185.657,219.987 186.323,219.840 187.240 M271.422 187.022 C 271.272 187.825,271.238 188.572,271.348 188.682 C 271.458 188.792,271.672 188.225,271.822 187.422 C 271.973 186.619,272.006 185.873,271.896 185.763 C 271.786 185.653,271.573 186.219,271.422 187.022 M86.240 187.640 C 86.093 188.557,86.052 189.385,86.147 189.480 C 86.242 189.576,86.446 188.910,86.600 188.000 C 86.754 187.090,86.796 186.262,86.693 186.160 C 86.590 186.057,86.387 186.723,86.240 187.640 M243.455 188.255 C 243.313 189.286,243.274 190.208,243.369 190.302 C 243.463 190.396,243.665 189.639,243.818 188.618 C 243.971 187.598,244.010 186.676,243.904 186.571 C 243.798 186.465,243.596 187.223,243.455 188.255 M109.854 188.754 C 109.700 189.718,109.658 190.591,109.761 190.694 C 110.030 190.963,110.515 188.145,110.307 187.522 C 110.212 187.236,110.008 187.790,109.854 188.754 M141.400 189.600 C 141.244 190.947,141.201 192.134,141.305 192.238 C 141.409 192.342,141.619 191.322,141.771 189.971 C 141.924 188.621,141.967 187.434,141.867 187.333 C 141.766 187.233,141.556 188.253,141.400 189.600 M192.849 188.600 C 192.816 189.040,192.696 189.850,192.583 190.400 L 192.377 191.400 192.806 190.419 C 193.042 189.879,193.161 189.069,193.072 188.619 C 192.913 187.821,192.907 187.821,192.849 188.600 M302.860 188.850 C 302.827 189.428,302.711 190.508,302.601 191.250 L 302.403 192.600 302.824 191.257 C 303.055 190.519,303.172 189.439,303.082 188.857 L 302.920 187.800 302.860 188.850 M169.249 189.000 C 169.216 189.440,169.096 190.250,168.983 190.800 L 168.777 191.800 169.206 190.819 C 169.442 190.279,169.561 189.469,169.472 189.019 C 169.313 188.221,169.307 188.221,169.249 189.000 M165.785 191.785 C 165.630 193.023,165.590 194.123,165.695 194.229 C 165.801 194.334,166.007 193.401,166.154 192.154 C 166.300 190.907,166.341 189.807,166.243 189.710 C 166.146 189.612,165.939 190.546,165.785 191.785 M219.040 191.240 C 218.893 192.157,218.852 192.985,218.947 193.080 C 219.042 193.176,219.246 192.510,219.400 191.600 C 219.554 190.690,219.596 189.862,219.493 189.760 C 219.390 189.657,219.187 190.323,219.040 191.240 M247.000 190.800 C 246.848 191.491,246.807 192.141,246.909 192.242 C 247.011 192.344,247.209 191.853,247.350 191.150 C 247.683 189.483,247.360 189.160,247.000 190.800 M327.262 191.200 C 327.222 191.970,327.096 193.050,326.983 193.600 L 326.777 194.600 327.208 193.614 C 327.444 193.071,327.570 191.991,327.486 191.214 L 327.334 189.800 327.262 191.200 M85.440 192.040 C 85.293 192.957,85.252 193.785,85.347 193.880 C 85.442 193.976,85.646 193.310,85.800 192.400 C 85.954 191.490,85.996 190.662,85.893 190.560 C 85.790 190.457,85.587 191.123,85.440 192.040 M270.600 192.000 C 270.446 192.910,270.411 193.744,270.521 193.854 C 270.631 193.964,270.846 193.310,271.000 192.400 C 271.154 191.490,271.189 190.656,271.079 190.546 C 270.969 190.436,270.754 191.090,270.600 192.000 M242.859 192.000 C 242.820 192.550,242.689 193.450,242.567 194.000 C 242.376 194.862,242.408 194.902,242.797 194.291 C 243.046 193.902,243.177 193.002,243.089 192.291 C 242.964 191.287,242.913 191.222,242.859 192.000 M109.254 192.400 C 109.219 192.950,109.096 193.850,108.983 194.400 L 108.777 195.400 109.207 194.415 C 109.443 193.874,109.565 192.974,109.478 192.415 L 109.320 191.400 109.254 192.400 M192.054 192.200 C 192.019 192.640,191.889 193.450,191.767 194.000 C 191.575 194.863,191.607 194.903,191.998 194.290 C 192.247 193.899,192.377 193.089,192.286 192.490 C 192.178 191.779,192.097 191.679,192.054 192.200 M140.649 193.415 C 140.512 193.773,140.418 194.456,140.441 194.933 C 140.467 195.481,140.603 195.286,140.810 194.403 C 141.160 192.916,141.065 192.333,140.649 193.415 M302.054 193.467 C 302.025 193.944,301.896 194.664,301.770 195.067 C 301.552 195.761,301.564 195.762,301.996 195.088 C 302.247 194.697,302.375 193.977,302.281 193.488 C 302.109 192.601,302.109 192.601,302.054 193.467 M168.200 194.400 C 168.048 195.091,168.014 195.747,168.124 195.857 C 168.234 195.967,168.448 195.491,168.600 194.800 C 168.752 194.109,168.786 193.453,168.676 193.343 C 168.566 193.233,168.352 193.709,168.200 194.400 M246.200 194.800 C 246.048 195.491,246.007 196.141,246.109 196.242 C 246.211 196.344,246.409 195.853,246.550 195.150 C 246.883 193.483,246.560 193.160,246.200 194.800 M218.222 195.822 C 218.072 196.625,218.028 197.362,218.126 197.460 C 218.224 197.557,218.427 196.981,218.578 196.178 C 218.728 195.375,218.772 194.638,218.674 194.540 C 218.576 194.443,218.373 195.019,218.222 195.822 M84.622 196.222 C 84.472 197.025,84.428 197.762,84.526 197.860 C 84.624 197.957,84.827 197.381,84.978 196.578 C 85.128 195.775,85.172 195.038,85.074 194.940 C 84.976 194.843,84.773 195.419,84.622 196.222 M165.000 196.000 C 164.848 196.691,164.807 197.341,164.909 197.442 C 165.011 197.544,165.209 197.053,165.350 196.350 C 165.683 194.683,165.360 194.360,165.000 196.000 M269.822 196.622 C 269.672 197.425,269.638 198.172,269.748 198.282 C 269.858 198.392,270.072 197.825,270.222 197.022 C 270.373 196.219,270.406 195.473,270.296 195.363 C 270.186 195.253,269.973 195.819,269.822 196.622 M326.446 195.667 C 326.421 196.034,326.296 196.664,326.170 197.067 C 325.952 197.762,325.963 197.763,326.397 197.087 C 326.648 196.696,326.773 196.066,326.673 195.687 C 326.511 195.068,326.488 195.066,326.446 195.667 M191.249 196.600 C 191.216 197.040,191.096 197.850,190.983 198.400 L 190.777 199.400 191.206 198.419 C 191.442 197.879,191.561 197.069,191.472 196.619 C 191.313 195.821,191.307 195.821,191.249 196.600 M241.840 197.640 C 241.693 198.557,241.652 199.385,241.747 199.480 C 241.842 199.576,242.046 198.910,242.200 198.000 C 242.354 197.090,242.396 196.262,242.293 196.160 C 242.190 196.057,241.987 196.723,241.840 197.640 M108.255 198.255 C 108.113 199.286,108.074 200.208,108.169 200.302 C 108.263 200.396,108.465 199.639,108.618 198.618 C 108.771 197.598,108.810 196.676,108.704 196.571 C 108.598 196.465,108.396 197.223,108.255 198.255 M167.400 198.400 C 167.248 199.091,167.207 199.741,167.309 199.842 C 167.411 199.944,167.609 199.453,167.750 198.750 C 168.083 197.083,167.760 196.760,167.400 198.400 M245.449 198.615 C 245.312 198.973,245.215 199.566,245.234 199.933 C 245.253 200.300,245.427 200.069,245.621 199.420 C 245.998 198.158,245.865 197.533,245.449 198.615 M138.329 200.256 C 137.079 202.759,134.834 205.238,132.406 206.796 C 130.207 208.207,129.657 208.877,131.645 207.723 C 134.651 205.977,138.310 201.866,139.320 199.100 C 139.808 197.761,139.250 198.412,138.329 200.256 M83.800 200.000 C 83.648 200.691,83.614 201.347,83.724 201.457 C 83.834 201.567,84.048 201.091,84.200 200.400 C 84.352 199.709,84.386 199.053,84.276 198.943 C 84.166 198.833,83.952 199.309,83.800 200.000 M217.400 200.000 C 217.248 200.691,217.207 201.341,217.309 201.442 C 217.411 201.544,217.609 201.053,217.750 200.350 C 218.083 198.683,217.760 198.360,217.400 200.000 M190.449 200.400 C 190.416 200.730,190.289 201.450,190.167 202.000 C 189.975 202.864,190.007 202.903,190.399 202.288 C 190.648 201.897,190.775 201.177,190.681 200.688 C 190.586 200.200,190.482 200.070,190.449 200.400 M269.022 201.422 C 268.872 202.225,268.838 202.972,268.948 203.082 C 269.058 203.192,269.272 202.625,269.422 201.822 C 269.573 201.019,269.606 200.273,269.496 200.163 C 269.386 200.053,269.173 200.619,269.022 201.422 M299.094 201.303 L 298.388 202.600 299.194 201.656 C 299.880 200.852,300.246 199.994,299.900 200.003 C 299.845 200.004,299.482 200.589,299.094 201.303 M241.054 202.354 C 240.900 203.318,240.858 204.191,240.961 204.294 C 241.230 204.563,241.715 201.745,241.507 201.122 C 241.412 200.836,241.208 201.390,241.054 202.354 M166.600 202.400 C 166.448 203.091,166.407 203.741,166.509 203.842 C 166.611 203.944,166.809 203.453,166.950 202.750 C 167.283 201.083,166.960 200.760,166.600 202.400 M107.454 203.154 C 107.300 204.118,107.258 204.991,107.361 205.094 C 107.630 205.363,108.115 202.545,107.907 201.922 C 107.812 201.636,107.608 202.190,107.454 203.154 M244.649 202.215 C 244.512 202.573,244.418 203.346,244.440 203.933 C 244.473 204.791,244.552 204.695,244.846 203.440 C 245.222 201.839,245.095 201.053,244.649 202.215 M83.022 204.222 C 82.872 205.025,82.828 205.762,82.926 205.860 C 83.024 205.957,83.227 205.381,83.378 204.578 C 83.528 203.775,83.572 203.038,83.474 202.940 C 83.376 202.843,83.173 203.419,83.022 204.222 M162.370 203.900 C 162.144 204.505,161.602 205.720,161.165 206.600 C 160.450 208.039,160.444 208.106,161.110 207.269 C 161.856 206.331,163.326 202.800,162.971 202.800 C 162.866 202.800,162.595 203.295,162.370 203.900 M216.622 204.222 C 216.472 205.025,216.428 205.762,216.526 205.860 C 216.624 205.957,216.827 205.381,216.978 204.578 C 217.128 203.775,217.172 203.038,217.074 202.940 C 216.976 202.843,216.773 203.419,216.622 204.222 M295.641 205.260 C 294.233 206.597,293.423 207.505,293.841 207.276 C 294.590 206.866,298.744 202.787,298.385 202.814 C 298.283 202.822,297.048 203.922,295.641 205.260 M189.649 204.600 C 189.616 205.040,189.496 205.850,189.383 206.400 L 189.177 207.400 189.606 206.419 C 189.842 205.879,189.961 205.069,189.872 204.619 C 189.713 203.821,189.707 203.821,189.649 204.600 M165.856 206.084 C 165.721 206.588,165.627 207.360,165.646 207.800 C 165.665 208.240,165.845 207.898,166.046 207.040 C 166.436 205.378,166.270 204.540,165.856 206.084 M268.256 206.084 C 268.121 206.588,268.027 207.360,268.046 207.800 C 268.065 208.240,268.245 207.898,268.446 207.040 C 268.836 205.378,268.670 204.540,268.256 206.084 M240.449 206.200 C 240.416 206.640,240.296 207.450,240.183 208.000 L 239.977 209.000 240.406 208.019 C 240.642 207.479,240.761 206.669,240.672 206.219 C 240.513 205.421,240.507 205.421,240.449 206.200 M243.856 206.484 C 243.721 206.988,243.627 207.760,243.646 208.200 C 243.665 208.640,243.845 208.298,244.046 207.440 C 244.436 205.778,244.270 204.940,243.856 206.484 M106.849 207.000 C 106.816 207.440,106.696 208.250,106.583 208.800 L 106.377 209.800 106.806 208.819 C 107.042 208.279,107.161 207.469,107.072 207.019 C 106.913 206.221,106.907 206.221,106.849 207.000 M82.200 208.400 C 82.048 209.091,82.014 209.747,82.124 209.857 C 82.234 209.967,82.448 209.491,82.600 208.800 C 82.752 208.109,82.786 207.453,82.676 207.343 C 82.566 207.233,82.352 207.709,82.200 208.400 M215.800 208.400 C 215.648 209.091,215.614 209.747,215.724 209.857 C 215.834 209.967,216.048 209.491,216.200 208.800 C 216.352 208.109,216.386 207.453,216.276 207.343 C 216.166 207.233,215.952 207.709,215.800 208.400 M159.632 209.139 C 158.979 210.360,159.114 210.700,159.841 209.663 C 160.193 209.160,160.388 208.654,160.273 208.540 C 160.159 208.425,159.870 208.695,159.632 209.139 M188.629 209.429 C 188.481 210.015,188.451 210.584,188.561 210.694 C 188.671 210.804,188.881 210.415,189.029 209.829 C 189.176 209.242,189.206 208.673,189.096 208.563 C 188.986 208.453,188.776 208.842,188.629 209.429 M125.800 209.600 C 125.508 210.073,125.899 210.073,127.000 209.600 C 127.771 209.269,127.769 209.255,126.924 209.228 C 126.442 209.213,125.936 209.380,125.800 209.600 M165.000 210.400 C 164.848 211.091,164.814 211.747,164.924 211.857 C 165.034 211.967,165.248 211.491,165.400 210.800 C 165.552 210.109,165.586 209.453,165.476 209.343 C 165.366 209.233,165.152 209.709,165.000 210.400 M319.874 210.833 C 319.255 211.695,318.841 212.400,318.954 212.400 C 319.265 212.400,321.335 209.601,321.156 209.423 C 321.070 209.337,320.493 209.972,319.874 210.833 M106.401 210.500 C 106.400 210.858,121.684 210.816,123.382 210.453 C 124.033 210.314,120.478 210.200,115.483 210.200 C 110.489 210.200,106.402 210.335,106.401 210.500 M239.654 210.800 C 239.619 211.350,239.496 212.250,239.383 212.800 L 239.177 213.800 239.607 212.815 C 239.843 212.274,239.965 211.374,239.878 210.815 L 239.720 209.800 239.654 210.800 M243.049 210.615 C 242.912 210.973,242.818 211.656,242.841 212.133 C 242.867 212.681,243.003 212.486,243.210 211.603 C 243.560 210.116,243.465 209.533,243.049 210.615 M268.001 210.500 C 268.000 210.874,282.033 210.854,284.164 210.477 C 285.024 210.325,281.739 210.200,276.865 210.200 C 271.990 210.200,268.002 210.335,268.001 210.500 M81.450 212.050 C 81.117 213.717,81.440 214.040,81.800 212.400 C 81.952 211.709,81.993 211.059,81.891 210.958 C 81.789 210.856,81.591 211.347,81.450 212.050 M215.049 212.215 C 214.912 212.573,214.816 213.256,214.836 213.733 C 214.862 214.347,214.985 214.208,215.259 213.256 C 215.657 211.872,215.494 211.058,215.049 212.215 M188.049 212.400 C 188.016 212.730,187.889 213.450,187.767 214.000 C 187.575 214.864,187.607 214.903,187.999 214.288 C 188.248 213.897,188.375 213.177,188.281 212.688 C 188.186 212.200,188.082 212.070,188.049 212.400 M154.404 216.100 C 152.997 217.695,152.349 218.550,152.963 218.000 C 154.142 216.944,157.384 213.200,157.119 213.200 C 157.033 213.200,155.812 214.505,154.404 216.100 M164.256 214.084 C 164.121 214.588,164.027 215.360,164.046 215.800 C 164.065 216.240,164.245 215.898,164.446 215.040 C 164.836 213.378,164.670 212.540,164.256 214.084 M242.256 214.484 C 242.121 214.988,242.027 215.760,242.046 216.200 C 242.065 216.640,242.245 216.298,242.446 215.440 C 242.836 213.778,242.670 212.940,242.256 214.484 M314.985 216.900 L 313.000 219.000 315.100 217.015 C 317.051 215.171,317.383 214.800,317.085 214.800 C 317.022 214.800,316.077 215.745,314.985 216.900 M80.600 216.400 C 80.448 217.091,80.414 217.747,80.524 217.857 C 80.634 217.967,80.848 217.491,81.000 216.800 C 81.152 216.109,81.186 215.453,81.076 215.343 C 80.966 215.233,80.752 215.709,80.600 216.400 M238.622 216.622 C 238.472 217.425,238.438 218.172,238.548 218.282 C 238.658 218.392,238.872 217.825,239.022 217.022 C 239.173 216.219,239.206 215.473,239.096 215.363 C 238.986 215.253,238.773 215.819,238.622 216.622 M214.256 216.484 C 214.121 216.988,214.027 217.760,214.046 218.200 C 214.065 218.640,214.245 218.298,214.446 217.440 C 214.836 215.778,214.670 214.940,214.256 216.484 M187.029 217.429 C 186.881 218.015,186.851 218.584,186.961 218.694 C 187.071 218.804,187.281 218.415,187.429 217.829 C 187.576 217.242,187.606 216.673,187.496 216.563 C 187.386 216.453,187.176 216.842,187.029 217.429 M163.400 218.400 C 163.248 219.091,163.214 219.747,163.324 219.857 C 163.434 219.967,163.648 219.491,163.800 218.800 C 163.952 218.109,163.986 217.453,163.876 217.343 C 163.766 217.233,163.552 217.709,163.400 218.400 M79.800 220.400 C 79.648 221.091,79.607 221.741,79.709 221.842 C 79.811 221.944,80.009 221.453,80.150 220.750 C 80.483 219.083,80.160 218.760,79.800 220.400 M238.049 220.200 C 238.016 220.640,237.896 221.450,237.783 222.000 L 237.577 223.000 238.006 222.019 C 238.242 221.479,238.361 220.669,238.272 220.219 C 238.113 219.421,238.107 219.421,238.049 220.200 M310.385 220.832 L 309.000 222.063 310.288 221.213 C 311.430 220.459,312.293 219.600,311.908 219.600 C 311.832 219.600,311.147 220.154,310.385 220.832 M213.400 221.200 C 213.248 221.891,213.207 222.541,213.309 222.642 C 213.411 222.744,213.609 222.253,213.750 221.550 C 213.891 220.847,213.931 220.198,213.841 220.108 C 213.750 220.017,213.552 220.509,213.400 221.200 M148.000 221.649 C 146.606 222.871,146.605 222.872,147.888 222.019 C 148.596 221.548,149.282 220.991,149.412 220.781 C 149.797 220.157,149.477 220.354,148.000 221.649 M186.229 221.429 C 186.081 222.015,186.051 222.584,186.161 222.694 C 186.271 222.804,186.481 222.415,186.629 221.829 C 186.776 221.242,186.806 220.673,186.696 220.563 C 186.586 220.453,186.376 220.842,186.229 221.429 M162.600 222.400 C 162.448 223.091,162.414 223.747,162.524 223.857 C 162.634 223.967,162.848 223.491,163.000 222.800 C 163.152 222.109,163.186 221.453,163.076 221.343 C 162.966 221.233,162.752 221.709,162.600 222.400 M240.656 222.884 C 240.521 223.388,240.427 224.160,240.446 224.600 C 240.465 225.040,240.645 224.698,240.846 223.840 C 241.236 222.178,241.070 221.340,240.656 222.884 M306.200 223.600 C 305.540 224.037,305.180 224.392,305.400 224.388 C 305.801 224.382,307.976 222.823,307.600 222.812 C 307.490 222.808,306.860 223.163,306.200 223.600 M79.056 224.084 C 78.921 224.588,78.827 225.360,78.846 225.800 C 78.865 226.240,79.045 225.898,79.246 225.040 C 79.636 223.378,79.470 222.540,79.056 224.084 M185.422 225.422 C 185.272 226.225,185.228 226.962,185.326 227.060 C 185.424 227.157,185.627 226.581,185.778 225.778 C 185.928 224.975,185.972 224.238,185.874 224.140 C 185.776 224.043,185.573 224.619,185.422 225.422 M212.656 224.884 C 212.521 225.388,212.427 226.160,212.446 226.600 C 212.465 227.040,212.645 226.698,212.846 225.840 C 213.236 224.178,213.070 223.340,212.656 224.884 M237.050 226.050 C 236.909 226.753,236.869 227.402,236.959 227.492 C 237.050 227.583,237.248 227.091,237.400 226.400 C 237.552 225.709,237.593 225.059,237.491 224.958 C 237.389 224.856,237.191 225.347,237.050 226.050 M161.778 226.974 C 161.637 227.730,161.639 228.540,161.784 228.774 C 162.089 229.267,184.635 229.390,184.939 228.900 C 185.041 228.735,179.897 228.650,173.509 228.712 L 161.894 228.824 162.152 227.212 C 162.465 225.252,162.140 225.045,161.778 226.974 M78.249 228.215 C 78.112 228.573,78.018 229.256,78.041 229.733 C 78.067 230.281,78.203 230.086,78.410 229.203 C 78.760 227.716,78.665 227.133,78.249 228.215 M133.800 228.000 C 132.693 228.282,132.677 228.309,133.600 228.347 C 134.150 228.369,134.870 228.213,135.200 228.000 C 135.881 227.560,135.529 227.560,133.800 228.000 M295.000 228.000 C 293.893 228.282,293.877 228.309,294.800 228.347 C 295.350 228.369,296.070 228.213,296.400 228.000 C 297.081 227.560,296.729 227.560,295.000 228.000 M128.800 228.800 L 126.600 229.070 128.600 229.095 C 129.700 229.109,131.050 228.976,131.600 228.800 C 132.828 228.407,132.009 228.407,128.800 228.800 M212.346 228.906 C 212.514 229.074,218.130 229.164,224.826 229.106 L 237.000 228.999 224.520 228.800 C 217.655 228.690,212.177 228.738,212.346 228.906 M290.400 228.800 L 288.200 229.070 290.200 229.107 C 291.300 229.127,292.560 228.989,293.000 228.800 C 293.902 228.412,293.562 228.412,290.400 228.800 M107.324 229.099 C 110.362 229.167,115.222 229.167,118.124 229.099 C 121.026 229.031,118.540 228.975,112.600 228.975 C 106.660 228.975,104.286 229.031,107.324 229.099 M268.524 229.099 C 271.562 229.167,276.422 229.167,279.324 229.099 C 282.226 229.031,279.740 228.975,273.800 228.975 C 267.860 228.975,265.486 229.031,268.524 229.099 M100.978 230.578 C 100.827 231.381,100.794 232.127,100.904 232.237 C 101.014 232.347,101.227 231.781,101.378 230.978 C 101.528 230.175,101.562 229.428,101.452 229.318 C 101.342 229.208,101.128 229.775,100.978 230.578 M262.493 230.400 C 262.493 231.170,262.575 231.485,262.676 231.100 C 262.776 230.715,262.776 230.085,262.676 229.700 C 262.575 229.315,262.493 229.630,262.493 230.400 M239.000 231.200 C 238.846 232.110,238.804 232.938,238.907 233.040 C 239.010 233.143,239.213 232.477,239.360 231.560 C 239.507 230.643,239.548 229.815,239.453 229.720 C 239.358 229.624,239.154 230.290,239.000 231.200 M77.449 232.215 C 77.312 232.573,77.215 233.166,77.234 233.533 C 77.253 233.900,77.427 233.669,77.621 233.020 C 77.998 231.758,77.865 231.133,77.449 232.215 M100.178 234.578 C 100.027 235.381,99.994 236.127,100.104 236.237 C 100.214 236.347,100.427 235.781,100.578 234.978 C 100.728 234.175,100.762 233.428,100.652 233.318 C 100.542 233.208,100.328 233.775,100.178 234.578 M238.025 236.225 C 237.769 237.693,237.639 238.972,237.735 239.069 C 237.832 239.165,238.119 238.043,238.375 236.575 C 238.631 235.107,238.761 233.828,238.665 233.731 C 238.568 233.635,238.281 234.757,238.025 236.225 M261.654 234.400 C 261.619 234.950,261.496 235.850,261.383 236.400 L 261.177 237.400 261.607 236.415 C 261.843 235.874,261.965 234.974,261.878 234.415 L 261.720 233.400 261.654 234.400 M76.649 236.215 C 76.512 236.573,76.421 237.346,76.446 237.933 C 76.480 238.732,76.570 238.598,76.804 237.400 C 77.135 235.700,77.062 235.140,76.649 236.215 M99.400 239.200 C 99.246 240.110,99.204 240.938,99.307 241.040 C 99.410 241.143,99.613 240.477,99.760 239.560 C 99.907 238.643,99.948 237.815,99.853 237.720 C 99.758 237.624,99.554 238.290,99.400 239.200 M260.854 238.400 C 260.819 238.950,260.696 239.850,260.583 240.400 L 260.377 241.400 260.807 240.415 C 261.043 239.874,261.165 238.974,261.078 238.415 L 260.920 237.400 260.854 238.400 M75.849 240.215 C 75.712 240.573,75.618 241.346,75.640 241.933 C 75.673 242.791,75.752 242.695,76.046 241.440 C 76.422 239.839,76.295 239.053,75.849 240.215 M237.040 241.240 C 236.893 242.157,236.852 242.985,236.947 243.080 C 237.042 243.176,237.246 242.510,237.400 241.600 C 237.554 240.690,237.596 239.862,237.493 239.760 C 237.390 239.657,237.187 240.323,237.040 241.240 M98.600 243.200 C 98.446 244.110,98.404 244.938,98.507 245.040 C 98.610 245.143,98.813 244.477,98.960 243.560 C 99.107 242.643,99.148 241.815,99.053 241.720 C 98.958 241.624,98.754 242.290,98.600 243.200 M260.049 243.000 C 260.016 243.440,259.896 244.250,259.783 244.800 L 259.577 245.800 260.006 244.819 C 260.242 244.279,260.361 243.469,260.272 243.019 C 260.113 242.221,260.107 242.221,260.049 243.000 M75.049 244.215 C 74.912 244.573,74.818 245.256,74.841 245.733 C 74.867 246.281,75.003 246.086,75.210 245.203 C 75.560 243.716,75.465 243.133,75.049 244.215 M236.449 244.200 C 236.416 244.640,236.296 245.450,236.183 246.000 L 235.977 247.000 236.406 246.019 C 236.642 245.479,236.761 244.669,236.672 244.219 C 236.513 243.421,236.507 243.421,236.449 244.200 M259.254 247.000 C 259.219 247.440,259.089 248.250,258.967 248.800 C 258.775 249.663,258.807 249.703,259.198 249.090 C 259.447 248.699,259.577 247.889,259.486 247.290 C 259.378 246.579,259.297 246.479,259.254 247.000 M74.256 248.084 C 74.121 248.588,74.028 249.450,74.049 250.000 C 74.072 250.589,74.231 250.271,74.436 249.225 C 74.803 247.352,74.673 246.527,74.256 248.084 M235.455 249.055 C 235.313 250.086,235.274 251.008,235.369 251.102 C 235.463 251.196,235.665 250.439,235.818 249.418 C 235.971 248.398,236.010 247.476,235.904 247.371 C 235.798 247.265,235.596 248.023,235.455 249.055 M97.654 248.400 C 97.619 248.950,97.496 249.850,97.383 250.400 L 97.177 251.400 97.607 250.415 C 97.843 249.874,97.965 248.974,97.878 248.415 L 97.720 247.400 97.654 248.400 M258.460 251.267 C 258.427 251.854,258.296 252.664,258.170 253.067 C 257.952 253.760,257.965 253.761,258.395 253.090 C 258.646 252.699,258.777 251.889,258.686 251.290 L 258.520 250.200 258.460 251.267 M73.461 252.396 C 72.965 254.875,72.614 254.801,84.743 254.794 C 90.824 254.791,96.008 254.656,96.263 254.494 C 96.517 254.332,91.567 254.200,85.263 254.200 L 73.800 254.200 73.917 252.700 C 74.058 250.903,73.795 250.727,73.461 252.396 M234.931 253.200 L 235.000 254.600 246.174 254.706 C 252.319 254.765,257.485 254.675,257.654 254.506 C 257.822 254.338,252.886 254.200,246.684 254.200 L 235.408 254.200 235.135 253.000 C 234.869 251.832,234.864 251.837,234.931 253.200 " stroke="none" fill="#545c7c" fill-rule="evenodd"></path><path id="path2" d="M191.200 108.000 C 191.200 108.251,188.412 108.412,183.700 108.433 C 179.575 108.451,173.950 108.644,171.200 108.861 C 168.450 109.079,164.625 109.347,162.700 109.457 C 160.775 109.567,159.200 109.824,159.200 110.028 C 159.200 110.233,158.254 110.400,157.097 110.400 C 155.941 110.400,154.379 110.576,153.628 110.792 C 152.876 111.008,151.295 111.216,150.115 111.254 C 148.936 111.293,147.876 111.476,147.762 111.662 C 147.647 111.848,146.699 112.000,145.656 112.000 C 144.613 112.000,143.589 112.170,143.380 112.377 C 143.171 112.585,142.055 112.797,140.900 112.849 C 139.745 112.901,138.800 113.073,138.800 113.231 C 138.800 113.390,138.035 113.619,137.100 113.741 C 133.978 114.148,132.204 114.492,131.800 114.768 C 131.580 114.919,130.770 115.092,130.000 115.155 C 129.230 115.217,128.429 115.432,128.220 115.634 C 128.011 115.835,127.257 116.000,126.544 116.000 C 125.831 116.000,125.136 116.180,125.000 116.400 C 124.864 116.620,124.043 116.800,123.176 116.800 C 122.309 116.800,121.600 116.980,121.600 117.200 C 121.600 117.420,120.880 117.600,120.000 117.600 C 119.120 117.600,118.400 117.780,118.400 118.000 C 118.400 118.220,117.871 118.400,117.224 118.400 C 116.577 118.400,115.936 118.580,115.800 118.800 C 115.664 119.020,114.923 119.200,114.153 119.200 C 113.321 119.200,112.853 119.362,113.000 119.600 C 113.144 119.833,112.745 120.000,112.047 120.000 C 111.387 120.000,110.736 120.180,110.600 120.400 C 110.464 120.620,109.924 120.800,109.400 120.800 C 108.876 120.800,108.336 120.980,108.200 121.200 C 108.064 121.420,107.333 121.600,106.576 121.600 C 105.819 121.600,105.200 121.780,105.200 122.000 C 105.200 122.220,104.761 122.400,104.224 122.400 C 103.687 122.400,103.136 122.580,103.000 122.800 C 102.864 123.020,102.403 123.200,101.976 123.200 C 101.549 123.200,101.200 123.380,101.200 123.600 C 101.200 123.820,100.660 124.000,100.000 124.000 C 99.340 124.000,98.800 124.139,98.800 124.309 C 98.800 124.596,96.494 125.327,93.900 125.863 C 93.295 125.988,92.800 126.250,92.800 126.445 C 92.800 126.640,92.451 126.800,92.024 126.800 C 91.597 126.800,91.136 126.980,91.000 127.200 C 90.864 127.420,90.328 127.600,89.810 127.600 C 89.291 127.600,88.807 127.764,88.733 127.963 C 88.660 128.163,88.240 128.388,87.800 128.463 C 87.360 128.539,86.910 128.690,86.800 128.800 C 86.462 129.138,83.037 130.759,82.400 130.883 C 82.070 130.947,81.710 131.090,81.600 131.200 C 81.114 131.686,79.556 132.400,78.982 132.400 C 78.636 132.400,78.464 132.580,78.600 132.800 C 78.736 133.020,78.602 133.200,78.303 133.200 C 77.549 133.200,75.607 134.135,75.603 134.500 C 75.601 134.665,75.240 134.800,74.800 134.800 C 74.360 134.800,74.000 134.980,74.000 135.200 C 74.000 135.420,73.640 135.600,73.200 135.600 C 72.760 135.600,72.400 135.745,72.400 135.921 C 72.400 136.098,71.503 136.683,70.406 137.221 C 69.310 137.760,68.410 138.335,68.406 138.500 C 68.403 138.665,68.164 138.800,67.875 138.800 C 67.587 138.800,66.964 139.160,66.492 139.600 C 66.020 140.040,65.356 140.400,65.017 140.400 C 64.678 140.400,64.400 140.559,64.400 140.753 C 64.400 140.948,64.085 141.222,63.700 141.363 C 62.339 141.862,60.800 142.849,60.800 143.222 C 60.800 143.430,60.665 143.568,60.500 143.528 C 60.077 143.426,57.606 144.937,57.603 145.300 C 57.601 145.465,57.319 145.600,56.976 145.600 C 56.633 145.600,56.464 145.780,56.600 146.000 C 56.736 146.220,56.593 146.400,56.283 146.400 C 55.973 146.400,55.179 146.916,54.518 147.547 C 53.858 148.178,53.126 148.763,52.891 148.847 C 52.308 149.056,49.231 151.719,46.360 154.500 C 45.054 155.765,43.898 156.800,43.792 156.800 C 43.502 156.800,40.400 160.056,40.400 160.360 C 40.400 160.505,40.040 160.883,39.600 161.200 C 39.160 161.517,38.800 161.925,38.800 162.106 C 38.800 162.288,38.395 162.856,37.900 163.368 C 36.580 164.734,35.422 166.182,35.538 166.321 C 35.594 166.388,35.136 166.929,34.520 167.525 C 33.904 168.120,33.349 168.850,33.286 169.147 C 33.223 169.443,32.920 169.937,32.612 170.245 C 32.304 170.553,31.938 171.164,31.799 171.602 C 31.660 172.041,31.378 172.400,31.173 172.400 C 30.968 172.400,30.800 172.760,30.800 173.200 C 30.800 173.640,30.620 174.000,30.400 174.000 C 30.180 174.000,30.000 174.360,30.000 174.800 C 30.000 175.240,29.820 175.600,29.600 175.600 C 29.380 175.600,29.200 175.971,29.200 176.424 C 29.200 176.877,29.020 177.136,28.800 177.000 C 28.580 176.864,28.400 177.126,28.400 177.582 C 28.400 178.445,27.661 180.011,27.042 180.460 C 26.845 180.602,26.786 180.985,26.910 181.311 C 27.035 181.636,26.938 182.102,26.694 182.346 C 26.156 182.884,24.825 187.781,24.811 189.276 C 24.805 189.868,24.620 190.464,24.400 190.600 C 23.855 190.937,23.855 209.200,24.400 209.200 C 24.620 209.200,24.800 209.899,24.800 210.754 C 24.800 212.270,25.709 215.903,26.437 217.295 C 26.637 217.677,26.800 218.264,26.800 218.600 C 26.800 219.258,27.598 220.851,28.120 221.236 C 28.296 221.366,28.469 221.861,28.505 222.336 C 28.541 222.811,28.712 223.200,28.885 223.200 C 29.058 223.200,29.200 223.560,29.200 224.000 C 29.200 224.440,29.380 224.800,29.600 224.800 C 29.820 224.800,30.000 225.070,30.000 225.400 C 30.000 225.730,30.180 226.000,30.400 226.000 C 30.620 226.000,30.800 226.360,30.800 226.800 C 30.800 227.240,30.950 227.600,31.132 227.600 C 31.315 227.600,31.720 228.095,32.032 228.700 C 32.345 229.305,32.915 230.149,33.300 230.575 C 33.685 231.002,34.000 231.547,34.000 231.787 C 34.000 232.027,34.360 232.483,34.800 232.800 C 35.240 233.117,35.600 233.585,35.600 233.840 C 35.600 234.095,36.320 235.045,37.200 235.952 C 38.080 236.859,38.800 237.781,38.800 238.000 C 38.800 238.220,38.980 238.400,39.200 238.400 C 39.420 238.400,39.600 238.700,39.600 239.067 C 39.600 239.433,39.711 239.622,39.848 239.486 C 40.158 239.176,41.200 240.185,41.200 240.795 C 41.200 241.044,41.380 241.136,41.600 241.000 C 41.820 240.864,42.000 240.945,42.000 241.179 C 42.000 241.651,48.422 247.999,48.900 247.999 C 49.064 248.000,49.941 248.720,50.848 249.600 C 51.755 250.480,52.679 251.200,52.901 251.200 C 53.124 251.200,53.597 251.524,53.953 251.919 C 54.309 252.314,55.230 253.071,56.000 253.600 C 56.770 254.129,57.715 254.913,58.100 255.342 C 58.485 255.771,58.800 255.995,58.800 255.839 C 58.800 255.683,59.819 256.286,61.065 257.178 C 62.311 258.070,63.571 258.800,63.865 258.800 C 64.159 258.800,64.400 258.980,64.400 259.200 C 64.400 259.420,64.720 259.600,65.112 259.600 C 65.503 259.600,66.083 259.960,66.400 260.400 C 66.717 260.840,67.282 261.200,67.655 261.200 C 68.028 261.200,68.393 261.335,68.467 261.500 C 68.634 261.876,70.764 263.175,71.700 263.471 C 72.085 263.593,72.400 263.852,72.400 264.047 C 72.400 264.241,72.760 264.400,73.200 264.400 C 73.640 264.400,74.000 264.580,74.000 264.800 C 74.000 265.020,74.360 265.200,74.800 265.200 C 75.240 265.200,75.600 265.380,75.600 265.600 C 75.600 265.820,75.870 266.000,76.200 266.000 C 76.530 266.000,76.800 266.180,76.800 266.400 C 76.800 266.620,77.235 266.800,77.767 266.800 C 78.298 266.800,78.793 266.935,78.867 267.100 C 79.032 267.472,84.164 269.957,87.500 271.280 C 88.215 271.563,88.800 271.899,88.800 272.025 C 88.800 272.152,89.700 272.500,90.800 272.800 C 91.900 273.100,92.800 273.503,92.800 273.696 C 92.800 273.889,92.948 273.956,93.129 273.844 C 93.309 273.732,93.963 273.903,94.582 274.224 C 95.200 274.545,96.402 274.919,97.253 275.055 C 98.104 275.191,98.800 275.459,98.800 275.651 C 98.800 275.843,99.162 276.000,99.605 276.000 C 100.048 276.000,100.768 276.180,101.205 276.400 C 101.642 276.620,102.358 276.980,102.795 277.200 C 103.232 277.420,103.941 277.600,104.371 277.600 C 104.801 277.600,105.264 277.780,105.400 278.000 C 105.536 278.220,106.166 278.400,106.800 278.400 C 107.434 278.400,108.064 278.580,108.200 278.800 C 108.336 279.020,108.876 279.200,109.400 279.200 C 109.924 279.200,110.464 279.380,110.600 279.600 C 110.736 279.820,111.276 280.000,111.800 280.000 C 112.324 280.000,112.864 280.180,113.000 280.400 C 113.136 280.620,113.766 280.800,114.400 280.800 C 115.034 280.800,115.664 280.980,115.800 281.200 C 115.936 281.420,116.566 281.600,117.200 281.600 C 117.834 281.600,118.464 281.780,118.600 282.000 C 118.736 282.220,119.467 282.400,120.224 282.400 C 120.981 282.400,121.600 282.580,121.600 282.800 C 121.600 283.020,122.320 283.200,123.200 283.200 C 124.080 283.200,124.800 283.380,124.800 283.600 C 124.800 283.820,125.520 284.000,126.400 284.000 C 127.280 284.000,128.000 284.180,128.000 284.400 C 128.000 284.620,128.684 284.800,129.520 284.800 C 130.356 284.800,131.211 284.962,131.420 285.159 C 131.629 285.356,132.520 285.617,133.400 285.739 C 134.280 285.860,135.990 286.156,137.200 286.395 C 141.306 287.209,143.795 287.637,145.600 287.840 C 146.590 287.951,147.760 288.204,148.200 288.402 C 148.990 288.757,150.630 288.968,156.300 289.444 C 157.895 289.578,159.200 289.803,159.200 289.944 C 159.200 290.085,160.685 290.261,162.500 290.335 C 164.315 290.409,165.993 290.629,166.228 290.824 C 166.464 291.019,167.184 291.168,167.828 291.155 C 172.431 291.062,191.200 291.789,191.200 292.061 C 191.200 292.248,195.160 292.400,200.000 292.400 C 204.840 292.400,208.800 292.249,208.800 292.064 C 208.800 291.879,214.065 291.608,220.500 291.461 C 232.050 291.198,232.818 291.154,234.000 290.681 C 234.330 290.549,235.950 290.367,237.600 290.277 C 239.250 290.186,240.870 290.010,241.200 289.884 C 241.530 289.758,242.880 289.552,244.200 289.427 C 245.520 289.302,247.860 289.014,249.400 288.788 C 250.940 288.562,253.010 288.275,254.000 288.150 C 254.990 288.025,255.971 287.760,256.180 287.561 C 256.389 287.363,257.604 287.200,258.880 287.200 C 260.160 287.200,261.200 287.021,261.200 286.800 C 261.200 286.580,261.974 286.400,262.920 286.400 C 263.866 286.400,264.811 286.230,265.020 286.021 C 265.229 285.813,266.165 285.598,267.100 285.543 C 268.035 285.488,268.800 285.299,268.800 285.122 C 268.800 284.945,269.520 284.800,270.400 284.800 C 271.280 284.800,272.000 284.620,272.000 284.400 C 272.000 284.180,272.720 284.000,273.600 284.000 C 274.480 284.000,275.200 283.820,275.200 283.600 C 275.200 283.380,275.920 283.200,276.800 283.200 C 277.680 283.200,278.400 283.020,278.400 282.800 C 278.400 282.580,279.120 282.400,280.000 282.400 C 280.880 282.400,281.600 282.220,281.600 282.000 C 281.600 281.780,282.140 281.600,282.800 281.600 C 283.460 281.600,284.000 281.420,284.000 281.200 C 284.000 280.980,284.731 280.800,285.624 280.800 C 286.604 280.800,287.149 280.642,287.000 280.400 C 286.856 280.167,287.255 280.000,287.953 280.000 C 288.613 280.000,289.264 279.820,289.400 279.600 C 289.536 279.380,290.087 279.200,290.624 279.200 C 291.161 279.200,291.600 279.020,291.600 278.800 C 291.600 278.580,292.219 278.400,292.976 278.400 C 293.733 278.400,294.464 278.220,294.600 278.000 C 294.736 277.780,295.377 277.600,296.024 277.600 C 296.671 277.600,297.200 277.420,297.200 277.200 C 297.200 276.980,297.560 276.800,298.000 276.800 C 298.440 276.800,298.800 276.620,298.800 276.400 C 298.800 276.180,299.340 276.000,300.000 276.000 C 300.660 276.000,301.200 275.840,301.200 275.645 C 301.200 275.450,302.006 275.170,302.991 275.022 C 303.976 274.875,304.886 274.584,305.014 274.377 C 305.142 274.170,305.559 274.000,305.939 274.000 C 306.320 274.000,307.337 273.640,308.200 273.200 C 309.063 272.760,310.091 272.400,310.485 272.400 C 310.878 272.400,311.200 272.220,311.200 272.000 C 311.200 271.780,311.560 271.600,312.000 271.600 C 312.440 271.600,312.800 271.420,312.800 271.200 C 312.800 270.980,313.036 270.800,313.325 270.800 C 313.614 270.800,314.595 270.440,315.506 270.000 C 316.416 269.560,317.425 269.200,317.747 269.200 C 318.070 269.200,318.393 269.064,318.467 268.898 C 318.540 268.732,319.860 267.968,321.400 267.200 C 322.940 266.432,324.260 265.668,324.333 265.502 C 324.407 265.336,324.812 265.200,325.233 265.200 C 325.655 265.200,326.000 265.020,326.000 264.800 C 326.000 264.580,326.345 264.400,326.767 264.400 C 327.188 264.400,327.593 264.265,327.667 264.100 C 327.834 263.724,329.964 262.425,330.900 262.129 C 331.285 262.007,331.600 261.748,331.600 261.553 C 331.600 261.359,331.878 261.200,332.217 261.200 C 332.556 261.200,333.220 260.840,333.692 260.400 C 334.164 259.960,334.787 259.600,335.075 259.600 C 335.364 259.600,335.600 259.420,335.600 259.200 C 335.600 258.980,335.856 258.800,336.169 258.800 C 336.483 258.800,337.565 258.169,338.576 257.398 C 339.586 256.627,340.622 255.952,340.878 255.898 C 341.135 255.844,341.879 255.305,342.532 254.700 C 343.184 254.095,343.922 253.600,344.171 253.600 C 344.420 253.600,344.883 253.240,345.200 252.800 C 345.517 252.360,345.915 252.000,346.084 252.000 C 346.459 252.000,347.665 251.029,349.440 249.300 C 350.173 248.585,351.060 248.000,351.410 248.000 C 351.761 248.000,351.936 247.820,351.800 247.600 C 351.664 247.380,351.713 247.200,351.908 247.200 C 352.373 247.200,356.400 243.214,356.400 242.754 C 356.400 242.559,356.594 242.400,356.831 242.400 C 357.403 242.400,359.600 240.185,359.600 239.607 C 359.600 239.357,359.780 239.264,360.000 239.400 C 360.220 239.536,360.400 239.459,360.400 239.228 C 360.400 238.789,360.943 238.076,363.100 235.685 C 363.815 234.892,364.400 234.049,364.400 233.810 C 364.400 233.572,364.760 233.117,365.200 232.800 C 365.640 232.483,366.000 231.993,366.000 231.712 C 366.000 231.430,366.180 231.200,366.400 231.200 C 366.620 231.200,366.800 230.930,366.800 230.600 C 366.800 230.270,366.980 230.000,367.200 230.000 C 367.420 230.000,367.600 229.764,367.600 229.475 C 367.600 229.187,367.960 228.564,368.400 228.092 C 368.840 227.620,369.200 226.971,369.200 226.650 C 369.200 226.329,369.342 226.007,369.515 225.933 C 369.973 225.739,371.761 221.915,373.224 218.000 C 374.529 214.510,374.727 213.760,375.078 211.000 C 375.190 210.120,375.444 209.229,375.641 209.020 C 376.100 208.534,376.115 191.318,375.656 191.035 C 375.467 190.918,375.189 189.610,375.037 188.129 C 374.885 186.647,374.593 185.233,374.388 184.986 C 374.184 184.739,373.949 184.191,373.866 183.769 C 373.703 182.927,372.608 180.206,371.990 179.105 C 371.775 178.723,371.600 178.038,371.600 177.582 C 371.600 177.126,371.420 176.864,371.200 177.000 C 370.980 177.136,370.800 176.964,370.800 176.618 C 370.800 176.044,370.086 174.486,369.600 174.000 C 369.490 173.890,369.175 173.395,368.900 172.900 C 367.648 170.646,367.369 170.198,366.914 169.701 C 366.647 169.409,366.113 168.637,365.728 167.985 C 365.343 167.333,364.876 166.800,364.690 166.800 C 364.505 166.800,364.465 166.619,364.602 166.397 C 364.739 166.176,364.569 165.886,364.225 165.754 C 363.881 165.622,363.600 165.336,363.600 165.118 C 363.600 164.899,363.060 164.217,362.400 163.600 C 361.740 162.983,361.200 162.181,361.200 161.816 C 361.200 161.451,361.020 161.264,360.800 161.400 C 360.580 161.536,360.400 161.451,360.400 161.210 C 360.400 160.662,358.116 158.400,357.563 158.400 C 357.337 158.400,357.264 158.220,357.400 158.000 C 357.536 157.780,357.492 157.600,357.302 157.600 C 356.789 157.600,351.657 152.476,351.913 152.220 C 352.034 152.099,351.834 152.000,351.467 152.000 C 351.101 152.000,350.037 151.280,349.103 150.400 C 348.169 149.520,347.267 148.800,347.099 148.800 C 346.930 148.800,346.228 148.260,345.537 147.600 C 344.846 146.940,344.118 146.400,343.919 146.400 C 343.720 146.400,342.981 145.861,342.278 145.202 C 341.575 144.543,340.857 144.003,340.683 144.002 C 340.509 144.001,339.973 143.633,339.491 143.185 C 339.010 142.736,338.207 142.266,337.708 142.141 C 337.209 142.016,336.800 141.753,336.800 141.557 C 336.800 141.360,336.530 141.200,336.200 141.200 C 335.870 141.200,335.600 141.020,335.600 140.800 C 335.600 140.580,335.280 140.400,334.888 140.400 C 334.497 140.400,333.917 140.040,333.600 139.600 C 333.283 139.160,332.703 138.800,332.312 138.800 C 331.920 138.800,331.600 138.620,331.600 138.400 C 331.600 138.180,331.330 138.000,331.000 138.000 C 330.670 138.000,330.400 137.854,330.400 137.675 C 330.400 137.496,329.770 137.102,329.000 136.800 C 328.230 136.498,327.600 136.104,327.600 135.925 C 327.600 135.746,327.285 135.596,326.900 135.591 C 326.515 135.586,325.750 135.230,325.200 134.800 C 324.650 134.370,323.900 134.014,323.533 134.009 C 323.167 134.004,322.807 133.864,322.733 133.698 C 322.563 133.314,316.500 130.374,312.500 128.737 C 311.785 128.444,311.200 128.069,311.200 127.902 C 311.200 127.736,310.838 127.600,310.395 127.600 C 309.952 127.600,309.277 127.435,308.895 127.234 C 307.185 126.332,305.039 125.523,303.197 125.085 C 302.098 124.824,301.200 124.473,301.200 124.305 C 301.200 124.137,300.761 124.000,300.224 124.000 C 299.687 124.000,299.136 123.820,299.000 123.600 C 298.864 123.380,298.313 123.200,297.776 123.200 C 297.239 123.200,296.800 123.020,296.800 122.800 C 296.800 122.580,296.361 122.400,295.824 122.400 C 295.287 122.400,294.736 122.220,294.600 122.000 C 294.464 121.780,293.834 121.600,293.200 121.600 C 292.566 121.600,291.936 121.420,291.800 121.200 C 291.664 120.980,291.113 120.800,290.576 120.800 C 290.039 120.800,289.600 120.620,289.600 120.400 C 289.600 120.180,288.970 120.000,288.200 120.000 C 287.430 120.000,286.800 119.820,286.800 119.600 C 286.800 119.380,286.170 119.200,285.400 119.200 C 284.630 119.200,284.000 119.020,284.000 118.800 C 284.000 118.580,283.471 118.400,282.824 118.400 C 282.177 118.400,281.536 118.220,281.400 118.000 C 281.264 117.780,280.544 117.600,279.800 117.600 C 279.056 117.600,278.336 117.420,278.200 117.200 C 278.064 116.980,277.344 116.800,276.600 116.800 C 275.856 116.800,275.136 116.620,275.000 116.400 C 274.864 116.180,274.144 116.000,273.400 116.000 C 272.656 116.000,271.936 115.820,271.800 115.600 C 271.664 115.380,270.854 115.200,270.000 115.200 C 269.146 115.200,268.336 115.020,268.200 114.800 C 268.064 114.580,267.233 114.400,266.353 114.400 C 265.473 114.400,264.844 114.253,264.955 114.074 C 265.065 113.894,264.315 113.704,263.287 113.650 C 262.260 113.597,261.324 113.418,261.209 113.253 C 261.094 113.088,260.101 112.902,259.001 112.840 C 257.902 112.778,256.912 112.596,256.801 112.436 C 256.691 112.276,255.611 112.096,254.402 112.037 C 253.193 111.979,252.113 111.806,252.002 111.654 C 251.891 111.502,250.747 111.327,249.460 111.264 C 248.173 111.201,246.676 110.981,246.134 110.775 C 245.592 110.569,244.170 110.400,242.974 110.400 C 241.778 110.400,240.800 110.232,240.800 110.027 C 240.800 109.823,239.135 109.567,237.100 109.459 C 235.065 109.352,231.240 109.083,228.600 108.862 C 225.960 108.641,220.425 108.447,216.300 108.430 C 211.587 108.411,208.800 108.251,208.800 108.000 C 208.800 107.745,205.600 107.600,200.000 107.600 C 194.400 107.600,191.200 107.745,191.200 108.000 M203.858 133.300 C 203.640 135.198,203.309 137.132,202.606 140.600 C 202.473 141.260,202.001 143.780,201.558 146.200 C 201.115 148.620,200.587 151.320,200.386 152.200 C 200.184 153.080,199.970 154.340,199.910 155.000 L 199.800 156.200 213.200 156.415 C 222.051 156.556,227.109 156.794,228.100 157.115 C 228.925 157.382,230.275 157.792,231.100 158.026 C 242.806 161.354,247.276 169.264,244.876 182.400 C 244.307 185.515,243.622 189.432,243.196 192.000 C 242.996 193.210,242.638 195.280,242.401 196.600 C 242.164 197.920,241.795 200.080,241.581 201.400 C 241.367 202.720,241.015 204.790,240.798 206.000 C 240.391 208.269,239.976 210.698,239.226 215.200 C 238.987 216.630,238.631 218.700,238.434 219.800 C 238.237 220.900,237.962 222.520,237.823 223.400 C 237.684 224.280,237.368 225.945,237.121 227.100 L 236.672 229.200 224.603 229.200 C 217.965 229.200,212.443 229.110,212.334 229.000 C 212.130 228.797,212.480 226.205,213.198 222.600 C 213.417 221.500,213.793 219.520,214.032 218.200 C 214.272 216.880,214.633 214.945,214.834 213.900 C 215.035 212.855,215.362 211.145,215.560 210.100 C 216.070 207.404,216.777 203.703,217.182 201.600 C 217.796 198.414,218.340 195.480,218.963 191.996 C 219.297 190.124,219.847 187.277,220.185 185.670 C 222.253 175.840,221.400 175.200,206.233 175.200 L 195.704 175.200 195.458 176.900 C 195.323 177.835,195.047 179.410,194.843 180.400 C 194.640 181.390,194.261 183.280,194.000 184.600 C 193.524 187.009,193.258 188.321,192.417 192.400 C 192.167 193.610,191.791 195.500,191.582 196.600 C 191.372 197.700,191.013 199.500,190.784 200.600 C 190.555 201.700,190.195 203.500,189.984 204.600 C 189.773 205.700,189.412 207.500,189.182 208.600 C 188.714 210.836,188.558 211.610,186.820 220.300 C 186.611 221.345,186.252 223.190,186.021 224.400 C 185.791 225.610,185.454 227.140,185.273 227.800 L 184.943 229.000 173.598 229.106 C 160.741 229.227,161.267 229.362,161.957 226.113 C 162.227 224.841,162.632 222.810,162.856 221.600 C 163.081 220.390,163.416 218.680,163.600 217.800 C 163.784 216.920,164.144 215.120,164.400 213.800 C 164.656 212.480,165.016 210.680,165.200 209.800 C 165.384 208.920,165.744 207.120,166.000 205.800 C 166.256 204.480,166.613 202.680,166.793 201.800 C 167.677 197.496,168.469 193.462,169.816 186.400 C 170.382 183.430,171.005 180.280,171.199 179.400 C 171.393 178.520,171.932 175.730,172.397 173.200 C 172.862 170.670,173.399 167.970,173.591 167.200 C 173.783 166.430,174.134 164.765,174.370 163.500 C 175.687 156.456,176.369 153.025,176.816 151.200 C 177.004 150.430,177.275 149.080,177.417 148.200 C 177.730 146.265,178.230 143.627,178.745 141.200 C 179.364 138.276,180.066 134.687,180.269 133.400 C 180.374 132.740,180.530 131.975,180.617 131.700 C 180.739 131.315,183.458 131.200,192.437 131.200 L 204.099 131.200 203.858 133.300 M145.000 157.156 C 145.880 157.431,147.230 157.835,148.000 158.054 C 150.691 158.820,156.400 161.543,156.400 162.060 C 156.400 162.247,156.654 162.400,156.965 162.400 C 159.084 162.400,164.590 170.922,165.777 176.040 C 167.809 184.801,165.561 201.163,161.578 206.600 C 161.417 206.820,160.903 207.686,160.436 208.524 C 159.969 209.362,159.413 210.262,159.201 210.524 C 158.989 210.786,157.739 212.383,156.423 214.074 C 154.172 216.968,148.422 222.054,146.065 223.237 C 145.479 223.531,144.522 224.093,143.938 224.486 C 143.354 224.879,142.589 225.200,142.238 225.200 C 141.887 225.200,141.600 225.380,141.600 225.600 C 141.600 225.820,141.328 226.000,140.995 226.000 C 140.662 226.000,140.077 226.174,139.695 226.387 C 135.602 228.670,131.082 229.200,115.700 229.200 C 107.945 229.200,101.600 229.343,101.600 229.518 C 101.600 229.693,101.256 231.538,100.836 233.618 C 100.416 235.698,99.596 240.010,99.015 243.200 C 98.433 246.390,97.787 249.651,97.579 250.446 C 97.370 251.242,97.200 252.264,97.200 252.718 C 97.200 254.728,96.771 254.800,84.798 254.800 C 73.093 254.800,72.251 254.658,73.354 252.874 C 73.467 252.691,73.765 251.385,74.016 249.971 C 74.267 248.557,74.645 246.590,74.855 245.600 C 75.065 244.610,75.414 242.900,75.631 241.800 C 75.848 240.700,76.200 238.945,76.413 237.900 C 76.626 236.855,76.986 235.055,77.213 233.900 C 77.440 232.745,77.789 230.990,77.988 230.000 C 78.574 227.090,78.803 225.928,79.246 223.600 C 79.476 222.390,79.816 220.680,80.000 219.800 C 80.184 218.920,80.530 217.210,80.769 216.000 C 81.007 214.790,81.494 212.360,81.851 210.600 C 82.208 208.840,82.658 206.545,82.850 205.500 C 83.853 200.055,84.907 194.689,87.665 181.000 C 88.551 176.600,89.432 172.100,89.622 171.000 C 89.812 169.900,90.138 168.190,90.347 167.200 C 90.881 164.666,91.623 160.887,91.961 158.985 C 92.118 158.097,92.390 157.140,92.564 156.859 C 93.013 156.132,142.622 156.414,145.000 157.156 M306.200 157.097 C 306.860 157.347,308.210 157.763,309.200 158.023 C 312.404 158.864,317.550 161.613,319.845 163.711 C 323.543 167.091,326.073 171.413,327.271 176.400 C 327.950 179.224,327.932 191.110,327.245 193.834 C 325.596 200.375,325.262 201.372,323.433 205.200 C 320.028 212.329,315.202 217.913,308.600 222.364 C 305.839 224.225,300.859 226.800,300.020 226.800 C 299.783 226.800,299.277 226.962,298.895 227.161 C 298.513 227.360,297.480 227.705,296.600 227.929 C 295.720 228.153,294.259 228.531,293.354 228.768 C 292.322 229.039,286.327 229.200,277.306 229.200 L 262.905 229.200 262.676 230.700 C 262.451 232.175,261.876 235.254,261.165 238.800 C 260.966 239.790,260.607 241.680,260.368 243.000 C 260.128 244.320,259.767 246.255,259.566 247.300 C 259.365 248.345,259.055 250.055,258.877 251.100 C 258.699 252.145,258.332 253.408,258.060 253.906 L 257.565 254.812 246.283 254.706 L 235.000 254.600 235.086 252.600 C 235.133 251.500,236.459 244.210,238.033 236.400 C 239.606 228.590,241.045 221.390,241.229 220.400 C 242.015 216.185,242.497 213.689,242.853 212.000 C 243.062 211.010,243.420 209.210,243.648 208.000 C 244.389 204.080,244.755 202.238,245.200 200.200 C 245.439 199.100,245.726 197.660,245.837 197.000 C 245.948 196.340,246.195 195.080,246.387 194.200 C 246.831 192.159,247.245 190.068,249.200 180.000 C 250.076 175.490,250.976 170.900,251.202 169.800 C 251.427 168.700,251.978 165.910,252.426 163.600 C 252.873 161.290,253.421 158.713,253.642 157.874 L 254.045 156.347 279.523 156.496 C 297.196 156.599,305.368 156.783,306.200 157.097 M112.236 176.500 C 112.125 177.215,111.939 178.430,111.822 179.200 C 111.706 179.970,111.420 181.680,111.187 183.000 C 110.955 184.320,110.591 186.480,110.379 187.800 C 110.166 189.120,109.816 191.190,109.600 192.400 C 109.230 194.475,108.952 196.162,107.999 202.100 C 107.145 207.423,106.877 209.021,106.741 209.600 C 106.553 210.400,124.877 210.483,125.675 209.685 C 125.942 209.418,126.653 209.200,127.256 209.200 C 127.859 209.200,128.464 209.020,128.600 208.800 C 128.736 208.580,129.116 208.400,129.446 208.400 C 132.185 208.400,139.600 200.224,139.600 197.204 C 139.600 196.788,139.760 196.348,139.956 196.227 C 140.151 196.106,140.410 195.421,140.530 194.704 C 142.078 185.438,142.078 185.436,141.566 183.278 C 140.702 179.641,137.613 176.904,132.954 175.645 C 131.964 175.378,127.542 175.200,121.872 175.200 L 112.436 175.200 112.236 176.500 M273.451 176.900 C 273.060 179.535,272.476 183.163,272.018 185.800 C 271.789 187.120,271.429 189.280,271.219 190.600 C 271.008 191.920,270.631 194.170,270.380 195.600 C 270.130 197.030,269.779 199.100,269.599 200.200 C 269.419 201.300,269.047 203.550,268.772 205.200 C 268.498 206.850,268.257 208.650,268.236 209.200 L 268.200 210.200 276.800 210.200 C 285.065 210.200,286.544 210.041,289.800 208.805 C 297.673 205.816,301.846 199.096,303.035 187.490 C 303.535 182.612,301.577 178.858,297.531 176.935 C 294.127 175.317,293.167 175.200,283.324 175.200 L 273.704 175.200 273.451 176.900 " stroke="none" fill="#8494c4" fill-rule="evenodd"></path><path id="path3" d="M192.572 131.497 C 201.919 131.595,203.572 131.702,203.731 132.214 C 203.859 132.624,203.898 132.591,203.854 132.108 C 203.794 131.450,203.013 131.399,192.695 131.390 L 181.600 131.381 192.572 131.497 M202.093 140.000 C 202.093 140.770,202.175 141.085,202.276 140.700 C 202.376 140.315,202.376 139.685,202.276 139.300 C 202.175 138.915,202.093 139.230,202.093 140.000 M178.849 142.600 C 178.816 143.040,178.696 143.850,178.583 144.400 L 178.377 145.400 178.806 144.419 C 179.042 143.879,179.161 143.069,179.072 142.619 C 178.913 141.821,178.907 141.821,178.849 142.600 M201.249 144.200 C 201.216 144.640,201.096 145.450,200.983 146.000 L 200.777 147.000 201.206 146.019 C 201.442 145.479,201.561 144.669,201.472 144.219 C 201.313 143.421,201.307 143.421,201.249 144.200 M178.049 146.600 C 178.016 147.040,177.896 147.850,177.783 148.400 L 177.577 149.400 178.006 148.419 C 178.242 147.879,178.361 147.069,178.272 146.619 C 178.113 145.821,178.107 145.821,178.049 146.600 M200.449 148.200 C 200.416 148.640,200.296 149.450,200.183 150.000 L 199.977 151.000 200.406 150.019 C 200.642 149.479,200.761 148.669,200.672 148.219 C 200.513 147.421,200.507 147.421,200.449 148.200 M177.254 150.667 C 177.225 151.144,177.096 151.864,176.970 152.267 C 176.752 152.961,176.764 152.962,177.196 152.288 C 177.447 151.897,177.575 151.177,177.481 150.688 C 177.309 149.801,177.309 149.801,177.254 150.667 M199.429 153.829 C 199.281 154.415,199.238 154.972,199.332 155.066 C 199.427 155.160,199.624 154.758,199.771 154.171 C 199.919 153.585,199.962 153.028,199.868 152.934 C 199.773 152.840,199.576 153.242,199.429 153.829 M176.446 154.867 C 176.421 155.234,176.296 155.864,176.170 156.267 C 175.952 156.962,175.963 156.963,176.397 156.287 C 176.648 155.896,176.773 155.266,176.673 154.887 C 176.511 154.268,176.488 154.266,176.446 154.867 M199.200 156.900 C 199.200 157.065,204.735 157.162,211.500 157.115 C 223.830 157.030,222.436 156.893,207.300 156.702 C 202.844 156.646,199.199 156.735,199.200 156.900 M92.782 157.634 C 92.536 158.093,92.423 158.557,92.531 158.664 C 92.639 158.772,92.845 158.488,92.989 158.033 C 93.250 157.211,93.394 157.206,116.726 157.100 L 140.200 156.993 116.714 156.897 C 93.268 156.800,93.227 156.801,92.782 157.634 M266.100 157.100 C 272.645 157.161,283.355 157.161,289.900 157.100 C 296.445 157.038,291.090 156.988,278.000 156.988 C 264.910 156.988,259.555 157.038,266.100 157.100 M143.200 157.600 C 143.530 157.813,144.160 157.978,144.600 157.966 L 145.400 157.944 144.600 157.600 C 143.404 157.086,142.405 157.086,143.200 157.600 M304.600 157.600 C 305.040 157.789,305.670 157.944,306.000 157.944 C 306.378 157.944,306.304 157.817,305.800 157.600 C 305.360 157.411,304.730 157.256,304.400 157.256 C 304.022 157.256,304.096 157.383,304.600 157.600 M175.654 158.667 C 175.625 159.144,175.496 159.864,175.370 160.267 C 175.152 160.961,175.164 160.962,175.596 160.288 C 175.847 159.897,175.975 159.177,175.881 158.688 C 175.709 157.801,175.709 157.801,175.654 158.667 M91.829 161.429 C 91.681 162.015,91.651 162.584,91.761 162.694 C 91.871 162.804,92.081 162.415,92.229 161.829 C 92.376 161.242,92.406 160.673,92.296 160.563 C 92.186 160.453,91.976 160.842,91.829 161.429 M153.400 160.672 C 153.620 160.885,154.790 161.728,156.000 162.546 C 157.590 163.621,157.848 163.724,156.930 162.917 C 155.745 161.874,152.522 159.825,153.400 160.672 M174.846 162.867 C 174.821 163.234,174.696 163.864,174.570 164.267 C 174.352 164.962,174.363 164.963,174.797 164.287 C 175.048 163.896,175.173 163.266,175.073 162.887 C 174.911 162.268,174.888 162.266,174.846 162.867 M240.400 163.800 C 241.146 164.570,241.847 165.200,241.957 165.200 C 242.067 165.200,241.546 164.570,240.800 163.800 C 240.054 163.030,239.353 162.400,239.243 162.400 C 239.133 162.400,239.654 163.030,240.400 163.800 M320.592 165.200 C 321.894 166.630,323.038 167.890,323.134 168.000 C 323.230 168.110,323.118 167.840,322.884 167.400 C 322.651 166.960,321.507 165.700,320.342 164.600 L 318.224 162.600 320.592 165.200 M159.755 165.719 C 160.603 166.753,161.380 167.600,161.482 167.600 C 161.755 167.600,159.221 164.460,158.677 164.124 C 158.422 163.966,158.907 164.684,159.755 165.719 M91.246 164.867 C 91.221 165.234,91.096 165.864,90.970 166.267 C 90.752 166.962,90.763 166.963,91.197 166.287 C 91.448 165.896,91.573 165.266,91.473 164.887 C 91.311 164.268,91.288 164.266,91.246 164.867 M251.822 168.222 C 251.672 169.025,251.628 169.762,251.726 169.860 C 251.824 169.957,252.027 169.381,252.178 168.578 C 252.328 167.775,252.372 167.038,252.274 166.940 C 252.176 166.843,251.973 167.419,251.822 168.222 M90.229 169.429 C 90.081 170.015,90.051 170.584,90.161 170.694 C 90.271 170.804,90.481 170.415,90.629 169.829 C 90.776 169.242,90.806 168.673,90.696 168.563 C 90.586 168.453,90.376 168.842,90.229 169.429 M173.246 170.867 C 173.221 171.234,173.096 171.864,172.970 172.267 C 172.752 172.962,172.763 172.963,173.197 172.287 C 173.448 171.896,173.573 171.266,173.473 170.887 C 173.311 170.268,173.288 170.266,173.246 170.867 M244.412 170.800 C 244.412 171.130,244.587 171.670,244.800 172.000 C 245.145 172.533,245.188 172.533,245.188 172.000 C 245.188 171.670,245.013 171.130,244.800 170.800 C 244.455 170.267,244.412 170.267,244.412 170.800 M251.056 172.084 C 250.921 172.588,250.827 173.360,250.846 173.800 C 250.865 174.240,251.045 173.898,251.246 173.040 C 251.636 171.378,251.470 170.540,251.056 172.084 M89.450 173.650 C 89.117 175.317,89.440 175.640,89.800 174.000 C 89.952 173.309,89.993 172.659,89.891 172.558 C 89.789 172.456,89.591 172.947,89.450 173.650 M112.080 174.880 C 111.816 175.144,111.613 175.639,111.628 175.980 C 111.648 176.408,111.753 176.353,111.968 175.800 C 112.263 175.043,112.753 174.989,121.040 174.788 L 129.800 174.576 121.180 174.488 C 114.906 174.424,112.429 174.531,112.080 174.880 M200.923 174.699 C 203.741 174.768,208.241 174.768,210.923 174.699 C 213.605 174.630,211.300 174.573,205.800 174.573 C 200.300 174.574,198.105 174.630,200.923 174.699 M273.461 174.700 C 273.358 174.865,275.913 174.954,279.137 174.897 C 289.958 174.706,291.063 174.562,282.324 174.480 C 277.552 174.436,273.563 174.535,273.461 174.700 M172.229 175.829 C 172.081 176.415,172.038 176.972,172.132 177.066 C 172.227 177.160,172.424 176.758,172.571 176.171 C 172.719 175.585,172.762 175.028,172.668 174.934 C 172.573 174.840,172.376 175.242,172.229 175.829 M250.200 176.400 C 250.048 177.091,250.007 177.741,250.109 177.842 C 250.211 177.944,250.409 177.453,250.550 176.750 C 250.883 175.083,250.560 174.760,250.200 176.400 M326.406 176.233 C 326.409 176.655,326.595 177.270,326.818 177.600 C 327.115 178.038,327.152 177.876,326.956 177.000 C 326.627 175.529,326.398 175.210,326.406 176.233 M88.650 177.650 C 88.317 179.317,88.640 179.640,89.000 178.000 C 89.152 177.309,89.193 176.659,89.091 176.558 C 88.989 176.456,88.791 176.947,88.650 177.650 M272.656 177.284 C 272.521 177.788,272.430 178.740,272.453 179.400 C 272.481 180.228,272.597 179.984,272.826 178.613 C 273.176 176.523,273.074 175.726,272.656 177.284 M194.649 177.415 C 194.512 177.773,194.415 178.366,194.434 178.733 C 194.453 179.100,194.627 178.869,194.821 178.220 C 195.198 176.958,195.065 176.333,194.649 177.415 M111.000 179.600 C 110.848 180.291,110.807 180.941,110.909 181.042 C 111.011 181.144,111.209 180.653,111.350 179.950 C 111.683 178.283,111.360 177.960,111.000 179.600 M165.872 180.200 C 165.999 181.300,166.169 182.275,166.251 182.367 C 166.532 182.682,166.320 180.199,165.980 179.200 C 165.751 178.526,165.716 178.851,165.872 180.200 M244.629 179.429 C 244.481 180.015,244.438 180.572,244.532 180.666 C 244.627 180.760,244.824 180.358,244.971 179.771 C 245.119 179.185,245.162 178.628,245.068 178.534 C 244.973 178.440,244.776 178.842,244.629 179.429 M171.429 179.829 C 171.281 180.415,171.238 180.972,171.332 181.066 C 171.427 181.160,171.624 180.758,171.771 180.171 C 171.919 179.585,171.962 179.028,171.868 178.934 C 171.773 178.840,171.576 179.242,171.429 179.829 M221.293 180.000 C 221.293 180.770,221.375 181.085,221.476 180.700 C 221.576 180.315,221.576 179.685,221.476 179.300 C 221.375 178.915,221.293 179.230,221.293 180.000 M88.046 180.867 C 88.021 181.234,87.896 181.864,87.770 182.267 C 87.552 182.962,87.563 182.963,87.997 182.287 C 88.248 181.896,88.373 181.266,88.273 180.887 C 88.111 180.268,88.088 180.266,88.046 180.867 M249.293 181.600 C 249.293 182.370,249.375 182.685,249.476 182.300 C 249.576 181.915,249.576 181.285,249.476 180.900 C 249.375 180.515,249.293 180.830,249.293 181.600 M193.849 181.415 C 193.712 181.773,193.615 182.366,193.634 182.733 C 193.653 183.100,193.827 182.869,194.021 182.220 C 194.398 180.958,194.265 180.333,193.849 181.415 M271.856 182.084 C 271.721 182.588,271.630 183.540,271.653 184.200 C 271.681 185.028,271.797 184.784,272.026 183.413 C 272.376 181.323,272.274 180.526,271.856 182.084 M327.342 184.600 C 327.341 186.580,327.408 187.440,327.492 186.512 C 327.576 185.584,327.577 183.964,327.495 182.912 C 327.412 181.860,327.343 182.620,327.342 184.600 M141.858 183.200 C 142.175 184.925,142.402 185.251,142.394 183.967 C 142.391 183.435,142.211 182.730,141.994 182.400 C 141.718 181.978,141.677 182.215,141.858 183.200 M170.600 184.000 C 170.448 184.691,170.407 185.341,170.509 185.442 C 170.611 185.544,170.809 185.053,170.950 184.350 C 171.283 182.683,170.960 182.360,170.600 184.000 M243.849 183.415 C 243.712 183.773,243.616 184.456,243.636 184.933 C 243.662 185.547,243.785 185.408,244.059 184.456 C 244.457 183.072,244.294 182.258,243.849 183.415 M303.365 185.904 L 303.331 189.000 303.697 186.894 C 303.898 185.736,303.914 184.343,303.731 183.798 C 303.496 183.094,303.390 183.701,303.365 185.904 M110.256 184.084 C 110.121 184.588,110.027 185.360,110.046 185.800 C 110.065 186.240,110.245 185.898,110.446 185.040 C 110.836 183.378,110.670 182.540,110.256 184.084 M220.650 184.850 C 220.317 186.517,220.640 186.840,221.000 185.200 C 221.152 184.509,221.193 183.859,221.091 183.758 C 220.989 183.656,220.791 184.147,220.650 184.850 M248.493 185.600 C 248.493 186.370,248.575 186.685,248.676 186.300 C 248.776 185.915,248.776 185.285,248.676 184.900 C 248.575 184.515,248.493 184.830,248.493 185.600 M87.029 185.829 C 86.881 186.415,86.838 186.972,86.932 187.066 C 87.027 187.160,87.224 186.758,87.371 186.171 C 87.519 185.585,87.562 185.028,87.468 184.934 C 87.373 184.840,87.176 185.242,87.029 185.829 M193.049 185.415 C 192.912 185.773,192.818 186.456,192.841 186.933 C 192.867 187.481,193.003 187.286,193.210 186.403 C 193.560 184.916,193.465 184.333,193.049 185.415 M271.069 186.756 C 270.921 187.495,270.820 188.483,270.844 188.950 C 270.868 189.418,271.047 188.990,271.242 188.000 C 271.437 187.010,271.538 186.023,271.467 185.806 C 271.396 185.590,271.217 186.017,271.069 186.756 M142.067 187.400 C 142.024 188.280,141.889 189.450,141.767 190.000 C 141.577 190.857,141.609 190.899,141.994 190.297 C 142.241 189.910,142.376 188.740,142.294 187.697 C 142.148 185.853,142.142 185.845,142.067 187.400 M166.064 187.450 C 166.029 188.138,165.911 189.308,165.801 190.050 L 165.603 191.400 166.024 190.058 C 166.255 189.320,166.373 188.150,166.286 187.458 L 166.128 186.200 166.064 187.450 M169.829 187.829 C 169.681 188.415,169.638 188.972,169.732 189.066 C 169.827 189.160,170.024 188.758,170.171 188.171 C 170.319 187.585,170.362 187.028,170.268 186.934 C 170.173 186.840,169.976 187.242,169.829 187.829 M243.049 188.215 C 242.912 188.573,242.818 189.256,242.841 189.733 C 242.867 190.281,243.003 190.086,243.210 189.203 C 243.560 187.716,243.465 187.133,243.049 188.215 M109.449 188.615 C 109.312 188.973,109.218 189.746,109.240 190.333 C 109.273 191.191,109.352 191.095,109.646 189.840 C 110.022 188.239,109.895 187.453,109.449 188.615 M219.850 189.250 C 219.517 190.917,219.840 191.240,220.200 189.600 C 220.352 188.909,220.393 188.259,220.291 188.158 C 220.189 188.056,219.991 188.547,219.850 189.250 M86.250 189.650 C 85.917 191.317,86.240 191.640,86.600 190.000 C 86.752 189.309,86.793 188.659,86.691 188.558 C 86.589 188.456,86.391 188.947,86.250 189.650 M192.249 189.415 C 192.112 189.773,192.015 190.366,192.034 190.733 C 192.053 191.100,192.227 190.869,192.421 190.220 C 192.798 188.958,192.665 188.333,192.249 189.415 M247.649 189.800 C 247.616 190.240,247.496 191.050,247.383 191.600 L 247.177 192.600 247.606 191.619 C 247.842 191.079,247.961 190.269,247.872 189.819 C 247.713 189.021,247.707 189.021,247.649 189.800 M169.029 191.829 C 168.881 192.415,168.838 192.972,168.932 193.066 C 169.027 193.160,169.224 192.758,169.371 192.171 C 169.519 191.585,169.562 191.028,169.468 190.934 C 169.373 190.840,169.176 191.242,169.029 191.829 M302.649 192.215 C 302.512 192.573,302.415 193.166,302.434 193.533 C 302.453 193.900,302.627 193.669,302.821 193.020 C 303.198 191.758,303.065 191.133,302.649 192.215 M326.656 192.484 C 326.521 192.988,326.427 193.760,326.446 194.200 C 326.465 194.640,326.645 194.298,326.846 193.440 C 327.236 191.778,327.070 190.940,326.656 192.484 M219.000 193.200 C 218.848 193.891,218.807 194.541,218.909 194.642 C 219.011 194.744,219.209 194.253,219.350 193.550 C 219.683 191.883,219.360 191.560,219.000 193.200 M108.656 193.284 C 108.521 193.788,108.428 194.650,108.449 195.200 C 108.472 195.789,108.631 195.471,108.836 194.425 C 109.203 192.552,109.073 191.727,108.656 193.284 M191.456 193.284 C 191.321 193.788,191.227 194.560,191.246 195.000 C 191.265 195.440,191.445 195.098,191.646 194.240 C 192.036 192.578,191.870 191.740,191.456 193.284 M242.249 193.015 C 242.112 193.373,242.018 194.056,242.041 194.533 C 242.067 195.081,242.203 194.886,242.410 194.003 C 242.760 192.516,242.665 191.933,242.249 193.015 M270.093 193.600 C 270.093 194.370,270.175 194.685,270.276 194.300 C 270.376 193.915,270.376 193.285,270.276 192.900 C 270.175 192.515,270.093 192.830,270.093 193.600 M168.200 196.400 C 168.048 197.091,168.007 197.741,168.109 197.842 C 168.211 197.944,168.409 197.453,168.550 196.750 C 168.883 195.083,168.560 194.760,168.200 196.400 M325.867 196.267 C 325.720 196.413,325.611 196.908,325.625 197.367 C 325.649 198.133,325.682 198.123,326.034 197.242 C 326.426 196.263,326.344 195.789,325.867 196.267 M190.656 197.284 C 190.521 197.788,190.427 198.560,190.446 199.000 C 190.465 199.440,190.645 199.098,190.846 198.240 C 191.236 196.578,191.070 195.740,190.656 197.284 M218.222 197.822 C 218.072 198.625,218.028 199.362,218.126 199.460 C 218.224 199.557,218.427 198.981,218.578 198.178 C 218.728 197.375,218.772 196.638,218.674 196.540 C 218.576 196.443,218.373 197.019,218.222 197.822 M84.600 198.000 C 84.448 198.691,84.407 199.341,84.509 199.442 C 84.611 199.544,84.809 199.053,84.950 198.350 C 85.283 196.683,84.960 196.360,84.600 198.000 M269.301 198.200 C 269.305 199.080,269.387 199.393,269.483 198.895 C 269.579 198.398,269.575 197.678,269.475 197.295 C 269.375 196.913,269.296 197.320,269.301 198.200 M107.856 198.084 C 107.721 198.588,107.630 199.540,107.653 200.200 C 107.681 201.028,107.797 200.784,108.026 199.413 C 108.376 197.323,108.274 196.526,107.856 198.084 M241.293 199.200 C 241.293 199.970,241.375 200.285,241.476 199.900 C 241.576 199.515,241.576 198.885,241.476 198.500 C 241.375 198.115,241.293 198.430,241.293 199.200 M189.856 201.284 C 189.721 201.788,189.627 202.560,189.646 203.000 C 189.665 203.440,189.845 203.098,190.046 202.240 C 190.436 200.578,190.270 199.740,189.856 201.284 M217.422 201.822 C 217.272 202.625,217.228 203.362,217.326 203.460 C 217.424 203.557,217.627 202.981,217.778 202.178 C 217.928 201.375,217.972 200.638,217.874 200.540 C 217.776 200.443,217.573 201.019,217.422 201.822 M83.800 202.000 C 83.648 202.691,83.607 203.341,83.709 203.442 C 83.811 203.544,84.009 203.053,84.150 202.350 C 84.483 200.683,84.160 200.360,83.800 202.000 M245.249 201.800 C 245.216 202.240,245.096 203.050,244.983 203.600 L 244.777 204.600 245.206 203.619 C 245.442 203.079,245.561 202.269,245.472 201.819 C 245.313 201.021,245.307 201.021,245.249 201.800 M240.649 202.215 C 240.512 202.573,240.421 203.346,240.446 203.933 C 240.480 204.732,240.570 204.598,240.804 203.400 C 241.135 201.700,241.062 201.140,240.649 202.215 M107.056 202.884 C 106.921 203.388,106.828 204.250,106.849 204.800 C 106.872 205.389,107.031 205.071,107.236 204.025 C 107.603 202.152,107.473 201.327,107.056 202.884 M135.600 204.600 C 134.628 205.590,133.923 206.400,134.033 206.400 C 134.143 206.400,135.028 205.590,136.000 204.600 C 136.972 203.610,137.677 202.800,137.567 202.800 C 137.457 202.800,136.572 203.610,135.600 204.600 M297.000 204.520 C 295.696 206.118,295.590 206.454,296.715 205.425 C 297.422 204.779,298.000 204.194,298.000 204.125 C 298.000 203.822,297.365 204.074,297.000 204.520 M189.056 205.284 C 188.921 205.788,188.827 206.560,188.846 207.000 C 188.865 207.440,189.045 207.098,189.246 206.240 C 189.636 204.578,189.470 203.740,189.056 205.284 M244.454 205.867 C 244.425 206.344,244.296 207.064,244.170 207.467 C 243.952 208.161,243.964 208.162,244.396 207.488 C 244.647 207.097,244.775 206.377,244.681 205.888 C 244.509 205.001,244.509 205.001,244.454 205.867 M160.600 206.800 C 160.259 207.460,160.069 208.000,160.179 208.000 C 160.289 208.000,160.659 207.460,161.000 206.800 C 161.341 206.140,161.531 205.600,161.421 205.600 C 161.311 205.600,160.941 206.140,160.600 206.800 M239.856 206.884 C 239.721 207.388,239.628 208.250,239.649 208.800 C 239.672 209.389,239.831 209.071,240.036 208.025 C 240.403 206.152,240.273 205.327,239.856 206.884 M216.454 207.200 C 216.419 207.750,216.296 208.650,216.183 209.200 L 215.977 210.200 216.407 209.215 C 216.643 208.674,216.765 207.774,216.678 207.215 L 216.520 206.200 216.454 207.200 M165.800 208.400 C 165.646 209.310,165.604 210.138,165.707 210.240 C 165.810 210.343,166.013 209.677,166.160 208.760 C 166.307 207.843,166.348 207.015,166.253 206.920 C 166.158 206.824,165.954 207.490,165.800 208.400 M106.100 209.700 L 106.200 211.000 114.120 211.109 C 118.476 211.168,122.289 211.078,122.594 210.909 C 122.898 210.739,119.391 210.655,114.800 210.722 L 106.454 210.844 106.227 209.622 L 106.000 208.400 106.100 209.700 M243.654 209.867 C 243.625 210.344,243.496 211.064,243.370 211.467 C 243.152 212.161,243.164 212.162,243.596 211.488 C 243.847 211.097,243.975 210.377,243.881 209.888 C 243.709 209.001,243.709 209.001,243.654 209.867 M267.328 210.200 C 267.416 211.053,281.857 211.669,283.922 210.908 C 284.382 210.739,280.914 210.658,276.214 210.728 C 268.233 210.848,267.656 210.808,267.458 210.128 C 267.279 209.514,267.259 209.526,267.328 210.200 M287.000 210.000 C 286.229 210.331,286.231 210.345,287.076 210.372 C 287.558 210.387,288.064 210.220,288.200 210.000 C 288.492 209.527,288.101 209.527,287.000 210.000 M157.692 211.429 C 157.197 212.183,156.872 212.800,156.969 212.800 C 157.247 212.800,158.904 210.371,158.739 210.206 C 158.657 210.124,158.186 210.674,157.692 211.429 M318.202 212.500 C 317.142 213.875,316.633 214.684,317.071 214.298 C 317.899 213.568,320.570 210.000,320.289 210.000 C 320.201 210.000,319.261 211.125,318.202 212.500 M215.693 211.600 C 215.693 212.370,215.775 212.685,215.876 212.300 C 215.976 211.915,215.976 211.285,215.876 210.900 C 215.775 210.515,215.693 210.830,215.693 211.600 M239.056 211.684 C 238.921 212.188,238.830 213.140,238.853 213.800 C 238.881 214.628,238.997 214.384,239.226 213.013 C 239.576 210.923,239.474 210.126,239.056 211.684 M165.056 212.084 C 164.921 212.588,164.827 213.360,164.846 213.800 C 164.865 214.240,165.045 213.898,165.246 213.040 C 165.636 211.378,165.470 210.540,165.056 212.084 M153.200 216.600 C 151.561 218.250,150.310 219.600,150.420 219.600 C 150.530 219.600,151.961 218.250,153.600 216.600 C 155.239 214.950,156.490 213.600,156.380 213.600 C 156.270 213.600,154.839 214.950,153.200 216.600 M242.846 214.067 C 242.821 214.434,242.696 215.064,242.570 215.467 C 242.352 216.162,242.363 216.163,242.797 215.487 C 243.048 215.096,243.173 214.466,243.073 214.087 C 242.911 213.468,242.888 213.466,242.846 214.067 M81.293 215.200 C 81.293 215.970,81.375 216.285,81.476 215.900 C 81.576 215.515,81.576 214.885,81.476 214.500 C 81.375 214.115,81.293 214.430,81.293 215.200 M238.269 216.356 C 238.121 217.095,238.020 218.082,238.044 218.550 C 238.068 219.018,238.247 218.590,238.442 217.600 C 238.637 216.610,238.738 215.623,238.667 215.406 C 238.596 215.190,238.417 215.617,238.269 216.356 M314.400 217.000 C 313.428 217.990,312.723 218.800,312.833 218.800 C 312.943 218.800,313.828 217.990,314.800 217.000 C 315.772 216.010,316.477 215.200,316.367 215.200 C 316.257 215.200,315.372 216.010,314.400 217.000 M242.054 217.867 C 242.025 218.344,241.896 219.064,241.770 219.467 C 241.552 220.161,241.564 220.162,241.996 219.488 C 242.247 219.097,242.375 218.377,242.281 217.888 C 242.109 217.001,242.109 217.001,242.054 217.867 M80.454 219.200 C 80.419 219.750,80.296 220.650,80.183 221.200 L 79.977 222.200 80.407 221.215 C 80.643 220.674,80.765 219.774,80.678 219.215 L 80.520 218.200 80.454 219.200 M310.600 220.244 L 309.000 221.676 310.700 220.404 C 312.163 219.310,312.691 218.783,312.300 218.806 C 312.245 218.809,311.480 219.456,310.600 220.244 M214.060 220.067 C 214.027 220.654,213.896 221.464,213.770 221.867 C 213.552 222.560,213.565 222.561,213.995 221.890 C 214.246 221.499,214.377 220.689,214.286 220.090 L 214.120 219.000 214.060 220.067 M148.011 221.020 C 146.184 222.309,146.813 222.292,148.714 221.000 C 149.523 220.450,150.009 220.009,149.793 220.020 C 149.577 220.030,148.775 220.480,148.011 221.020 M163.254 221.200 C 163.219 221.750,163.096 222.650,162.983 223.200 L 162.777 224.200 163.207 223.215 C 163.443 222.674,163.565 221.774,163.478 221.215 L 163.320 220.200 163.254 221.200 M237.260 222.450 C 237.227 223.028,237.111 224.107,237.001 224.850 L 236.803 226.200 237.224 224.857 C 237.455 224.119,237.572 223.039,237.482 222.457 L 237.320 221.400 237.260 222.450 M241.029 223.029 C 240.881 223.615,240.851 224.184,240.961 224.294 C 241.071 224.404,241.281 224.015,241.429 223.429 C 241.576 222.842,241.606 222.273,241.496 222.163 C 241.386 222.053,241.176 222.442,241.029 223.029 M144.800 223.236 C 144.136 223.779,144.069 223.915,144.600 223.640 C 145.905 222.966,146.628 222.412,146.200 222.415 C 145.980 222.417,145.350 222.786,144.800 223.236 M79.649 223.400 C 79.616 223.840,79.496 224.650,79.383 225.200 L 79.177 226.200 79.606 225.219 C 79.842 224.679,79.961 223.869,79.872 223.419 C 79.713 222.621,79.707 222.621,79.649 223.400 M304.800 223.833 C 304.242 224.143,304.065 224.385,304.400 224.381 C 304.730 224.378,305.349 224.110,305.776 223.787 C 306.739 223.059,306.145 223.087,304.800 223.833 M240.446 226.067 C 240.421 226.434,240.296 227.064,240.170 227.467 C 239.952 228.162,239.963 228.163,240.397 227.487 C 240.648 227.096,240.773 226.466,240.673 226.087 C 240.511 225.468,240.488 225.466,240.446 226.067 M184.846 226.867 C 184.821 227.234,184.696 227.864,184.570 228.267 C 184.352 228.962,184.363 228.963,184.797 228.287 C 185.048 227.896,185.173 227.266,185.073 226.887 C 184.911 226.268,184.888 226.266,184.846 226.867 M78.854 227.467 C 78.825 227.944,78.696 228.664,78.570 229.067 C 78.352 229.761,78.364 229.762,78.796 229.088 C 79.047 228.697,79.175 227.977,79.081 227.488 C 78.909 226.601,78.909 226.601,78.854 227.467 M129.800 228.419 C 129.242 228.671,129.485 228.707,130.600 228.538 C 131.480 228.404,132.275 228.228,132.367 228.147 C 132.710 227.844,130.568 228.071,129.800 228.419 M291.400 228.400 C 290.381 228.838,291.432 228.838,292.800 228.400 C 293.604 228.143,293.643 228.077,293.000 228.068 C 292.560 228.062,291.840 228.211,291.400 228.400 M239.646 230.067 C 239.621 230.434,239.496 231.064,239.370 231.467 C 239.152 232.162,239.163 232.163,239.597 231.487 C 239.848 231.096,239.973 230.466,239.873 230.087 C 239.711 229.468,239.688 229.466,239.646 230.067 M78.054 231.467 C 78.025 231.944,77.896 232.664,77.770 233.067 C 77.552 233.761,77.564 233.762,77.996 233.088 C 78.247 232.697,78.375 231.977,78.281 231.488 C 78.109 230.601,78.109 230.601,78.054 231.467 M261.849 231.415 C 261.712 231.773,261.615 232.366,261.634 232.733 C 261.653 233.100,261.827 232.869,262.021 232.220 C 262.398 230.958,262.265 230.333,261.849 231.415 M100.454 231.867 C 100.425 232.344,100.296 233.064,100.170 233.467 C 99.952 234.161,99.964 234.162,100.396 233.488 C 100.647 233.097,100.775 232.377,100.681 231.888 C 100.509 231.001,100.509 231.001,100.454 231.867 M238.629 235.029 C 238.481 235.615,238.451 236.184,238.561 236.294 C 238.671 236.404,238.881 236.015,239.029 235.429 C 239.176 234.842,239.206 234.273,239.096 234.163 C 238.986 234.053,238.776 234.442,238.629 235.029 M77.249 235.400 C 77.216 235.840,77.096 236.650,76.983 237.200 L 76.777 238.200 77.206 237.219 C 77.442 236.679,77.561 235.869,77.472 235.419 C 77.313 234.621,77.307 234.621,77.249 235.400 M261.049 235.415 C 260.912 235.773,260.815 236.366,260.834 236.733 C 260.853 237.100,261.027 236.869,261.221 236.220 C 261.598 234.958,261.465 234.333,261.049 235.415 M76.449 239.600 C 76.416 239.930,76.289 240.650,76.167 241.200 C 75.975 242.064,76.007 242.103,76.399 241.488 C 76.648 241.097,76.775 240.377,76.681 239.888 C 76.586 239.400,76.482 239.270,76.449 239.600 M260.249 239.815 C 260.112 240.173,260.015 240.766,260.034 241.133 C 260.053 241.500,260.227 241.269,260.421 240.620 C 260.798 239.358,260.665 238.733,260.249 239.815 M98.629 241.429 C 98.481 242.015,98.438 242.572,98.532 242.666 C 98.627 242.760,98.824 242.358,98.971 241.771 C 99.119 241.185,99.162 240.628,99.068 240.534 C 98.973 240.440,98.776 240.842,98.629 241.429 M237.000 243.200 C 236.848 243.891,236.807 244.541,236.909 244.642 C 237.011 244.744,237.209 244.253,237.350 243.550 C 237.491 242.847,237.531 242.198,237.441 242.108 C 237.350 242.017,237.152 242.509,237.000 243.200 M75.646 243.667 C 75.621 244.034,75.496 244.664,75.370 245.067 C 75.152 245.762,75.163 245.763,75.597 245.087 C 75.848 244.696,75.973 244.066,75.873 243.687 C 75.711 243.068,75.688 243.066,75.646 243.667 M259.449 243.815 C 259.312 244.173,259.218 244.856,259.241 245.333 C 259.267 245.881,259.403 245.686,259.610 244.803 C 259.960 243.316,259.865 242.733,259.449 243.815 M97.800 245.600 C 97.648 246.291,97.607 246.941,97.709 247.042 C 97.811 247.144,98.009 246.653,98.150 245.950 C 98.483 244.283,98.160 243.960,97.800 245.600 M236.229 247.029 C 236.081 247.615,236.038 248.172,236.132 248.266 C 236.227 248.360,236.424 247.958,236.571 247.371 C 236.719 246.785,236.762 246.228,236.668 246.134 C 236.573 246.040,236.376 246.442,236.229 247.029 M74.650 248.450 C 74.317 250.117,74.640 250.440,75.000 248.800 C 75.152 248.109,75.193 247.459,75.091 247.358 C 74.989 247.256,74.791 247.747,74.650 248.450 M258.649 247.815 C 258.512 248.173,258.418 248.856,258.441 249.333 C 258.467 249.881,258.603 249.686,258.810 248.803 C 259.160 247.316,259.065 246.733,258.649 247.815 M97.029 249.829 C 96.881 250.415,96.838 250.972,96.932 251.066 C 97.027 251.160,97.224 250.758,97.371 250.171 C 97.519 249.585,97.562 249.028,97.468 248.934 C 97.373 248.840,97.176 249.242,97.029 249.829 M74.000 251.967 C 74.000 252.389,73.891 253.019,73.757 253.367 C 73.624 253.715,73.677 254.000,73.875 254.000 C 74.074 254.000,74.279 253.370,74.331 252.600 C 74.383 251.830,74.329 251.200,74.213 251.200 C 74.096 251.200,74.000 251.545,74.000 251.967 M235.293 252.800 C 235.293 253.570,235.375 253.885,235.476 253.500 C 235.576 253.115,235.576 252.485,235.476 252.100 C 235.375 251.715,235.293 252.030,235.293 252.800 " stroke="none" fill="#444c64" fill-rule="evenodd"></path><path id="path4" d="M153.200 217.000 C 152.228 217.990,151.523 218.800,151.633 218.800 C 151.743 218.800,152.628 217.990,153.600 217.000 C 154.572 216.010,155.277 215.200,155.167 215.200 C 155.057 215.200,154.172 216.010,153.200 217.000 M124.105 229.087 C 124.714 229.179,125.614 229.177,126.105 229.082 C 126.597 228.987,126.100 228.911,125.000 228.914 C 123.900 228.917,123.497 228.995,124.105 229.087 M285.300 229.087 C 285.905 229.178,286.895 229.178,287.500 229.087 C 288.105 228.995,287.610 228.920,286.400 228.920 C 285.190 228.920,284.695 228.995,285.300 229.087 M246.600 254.000 L 235.400 254.219 246.476 254.310 C 253.528 254.367,257.643 254.255,257.800 254.000 C 257.936 253.780,257.992 253.641,257.924 253.690 C 257.856 253.740,252.760 253.880,246.600 254.000 M79.524 254.299 C 82.673 254.367,87.713 254.367,90.724 254.299 C 93.736 254.231,91.160 254.176,85.000 254.176 C 78.840 254.176,76.376 254.232,79.524 254.299 " stroke="none" fill="#4c5474" fill-rule="evenodd"></path></g></svg>