<svg id="svg" version="1.1" xmlns="http://www.w3.org/2000/svg" xmlns:xlink="http://www.w3.org/1999/xlink" width="400" height="400" viewBox="0, 0, 400,400"><g id="svgg"><path id="path0" d="M281.641 184.619 C 252.730 188.438,235.925 216.695,245.953 244.623 C 251.494 260.053,260.689 267.523,289.172 279.734 C 308.898 288.191,313.705 291.958,314.819 299.829 C 316.516 311.810,306.702 319.254,289.980 318.669 C 278.894 318.282,269.974 313.015,262.542 302.469 L 260.045 298.926 252.971 303.026 C 249.081 305.281,243.130 308.709,239.746 310.643 C 236.362 312.578,233.594 314.361,233.594 314.606 C 233.594 316.914,243.482 329.394,248.566 333.502 C 272.697 353.001,315.910 352.638,335.876 332.769 C 344.611 324.076,348.681 312.018,347.631 297.941 C 345.915 274.955,335.043 263.606,300.586 248.832 C 280.983 240.427,277.379 237.673,275.893 229.965 C 272.002 209.784,300.541 205.730,311.763 224.869 L 312.717 226.496 325.490 218.284 L 338.264 210.073 335.456 205.915 C 323.656 188.443,305.895 181.415,281.641 184.619 M182.320 245.410 C 182.187 309.815,182.292 306.658,180.128 310.857 C 176.871 317.176,169.192 320.030,160.437 318.175 C 154.367 316.889,149.335 312.282,144.520 303.602 C 143.371 301.529,144.918 300.843,129.569 310.235 C 119.562 316.358,116.806 318.214,116.990 318.706 C 118.373 322.405,124.134 330.348,128.314 334.319 C 149.389 354.337,191.716 352.064,206.616 330.114 C 215.446 317.104,215.475 316.802,215.329 239.240 L 215.229 185.938 198.836 185.938 L 182.443 185.938 182.320 245.410 " stroke="none" fill="#2c342c" fill-rule="evenodd"></path><path id="path1" d="M24.219 200.000 L 24.219 375.781 200.000 375.781 L 375.781 375.781 375.781 200.000 L 375.781 24.219 200.000 24.219 L 24.219 24.219 24.219 200.000 M304.701 184.715 C 318.449 187.505,327.399 193.710,336.283 206.613 C 338.891 210.400,339.173 209.875,332.129 214.345 C 328.745 216.492,322.959 220.194,319.271 222.570 L 312.566 226.891 311.068 224.288 C 299.879 204.850,270.553 211.489,276.556 232.101 C 278.222 237.821,283.080 241.089,301.758 249.058 C 335.746 263.558,347.034 276.022,347.927 300.039 C 348.546 316.683,342.328 329.680,329.688 338.161 C 309.131 351.953,274.820 351.362,252.562 336.833 C 245.657 332.325,231.694 315.676,233.466 314.063 C 234.048 313.533,259.718 298.828,260.039 298.840 C 260.211 298.847,261.089 299.946,261.991 301.282 C 270.710 314.204,281.733 319.774,295.741 318.337 C 308.300 317.048,314.593 311.584,314.611 301.953 C 314.628 292.656,310.253 288.988,287.667 279.364 C 260.269 267.690,250.230 259.108,245.156 243.022 C 236.272 214.861,253.140 188.235,282.422 184.197 C 288.076 183.417,299.627 183.686,304.701 184.715 M215.527 245.996 C 215.393 312.221,215.521 308.500,213.082 317.004 C 206.986 338.258,187.281 350.043,161.173 348.050 C 141.246 346.529,127.053 337.566,117.605 320.534 C 116.440 318.435,116.380 318.173,116.961 317.748 C 121.361 314.531,143.549 301.501,143.823 301.974 C 151.490 315.217,156.460 318.754,166.723 318.270 C 173.323 317.958,177.634 315.421,180.051 310.424 C 182.090 306.210,182.171 304.526,182.063 268.945 C 182.008 251.113,182.091 225.054,182.248 211.035 L 182.532 185.547 199.090 185.547 L 215.649 185.547 215.527 245.996 " stroke="none" fill="#fcdc3c" fill-rule="evenodd"></path><path id="path2" d="M289.355 183.883 C 290.698 183.959,292.896 183.959,294.238 183.883 C 295.581 183.807,294.482 183.744,291.797 183.744 C 289.111 183.744,288.013 183.807,289.355 183.883 M198.827 185.838 L 215.232 185.946 215.333 239.164 L 215.434 292.383 215.432 239.063 L 215.430 185.742 198.926 185.736 L 182.422 185.729 198.827 185.838 M243.059 224.219 C 243.059 224.971,243.140 225.278,243.238 224.902 C 243.336 224.526,243.336 223.911,243.238 223.535 C 243.140 223.159,243.059 223.467,243.059 224.219 M275.508 226.563 C 275.508 227.744,275.581 228.228,275.670 227.637 C 275.760 227.046,275.760 226.079,275.670 225.488 C 275.581 224.897,275.508 225.381,275.508 226.563 M243.059 231.641 C 243.059 232.393,243.140 232.700,243.238 232.324 C 243.336 231.948,243.336 231.333,243.238 230.957 C 243.140 230.581,243.059 230.889,243.059 231.641 M182.179 268.359 C 182.179 270.830,182.242 271.841,182.320 270.605 C 182.397 269.370,182.397 267.349,182.320 266.113 C 182.242 264.878,182.179 265.889,182.179 268.359 M215.380 297.461 C 215.381 299.824,215.446 300.741,215.523 299.497 C 215.601 298.254,215.601 296.321,215.522 295.201 C 215.443 294.080,215.380 295.098,215.380 297.461 M347.768 299.414 C 347.771 300.488,347.847 300.881,347.937 300.288 C 348.026 299.694,348.024 298.815,347.931 298.334 C 347.839 297.854,347.765 298.340,347.768 299.414 M182.138 300.391 C 182.138 301.357,182.214 301.753,182.307 301.270 C 182.400 300.786,182.400 299.995,182.307 299.512 C 182.214 299.028,182.138 299.424,182.138 300.391 M347.768 305.273 C 347.771 306.348,347.847 306.741,347.937 306.147 C 348.026 305.553,348.024 304.674,347.931 304.194 C 347.839 303.713,347.765 304.199,347.768 305.273 M266.797 307.935 C 266.797 308.002,267.368 308.573,268.066 309.204 L 269.336 310.352 268.189 309.082 C 267.119 307.899,266.797 307.633,266.797 307.935 M150.000 311.841 C 150.000 311.908,150.571 312.479,151.270 313.111 L 152.539 314.258 151.392 312.988 C 150.322 311.805,150.000 311.539,150.000 311.841 M159.863 347.926 C 160.239 348.024,160.854 348.024,161.230 347.926 C 161.606 347.827,161.299 347.747,160.547 347.747 C 159.795 347.747,159.487 347.827,159.863 347.926 M170.801 347.926 C 171.177 348.024,171.792 348.024,172.168 347.926 C 172.544 347.827,172.236 347.747,171.484 347.747 C 170.732 347.747,170.425 347.827,170.801 347.926 M287.402 347.932 C 287.886 348.025,288.677 348.025,289.160 347.932 C 289.644 347.839,289.248 347.763,288.281 347.763 C 287.314 347.763,286.919 347.839,287.402 347.932 M297.168 347.932 C 297.651 348.025,298.442 348.025,298.926 347.932 C 299.409 347.839,299.014 347.763,298.047 347.763 C 297.080 347.763,296.685 347.839,297.168 347.932 " stroke="none" fill="#948c3c" fill-rule="evenodd"></path><path id="path3" d="M255.249 196.973 L 254.102 198.242 255.371 197.095 C 256.069 196.464,256.641 195.893,256.641 195.825 C 256.641 195.524,256.318 195.789,255.249 196.973 M182.216 238.672 C 182.216 252.744,182.264 258.501,182.324 251.465 C 182.384 244.429,182.384 232.915,182.324 225.879 C 182.264 218.843,182.216 224.600,182.216 238.672 M182.187 278.320 C 182.188 281.543,182.249 282.809,182.322 281.134 C 182.395 279.460,182.395 276.823,182.321 275.275 C 182.247 273.727,182.187 275.098,182.187 278.320 M182.143 297.070 C 182.146 298.145,182.222 298.538,182.312 297.944 C 182.401 297.350,182.399 296.471,182.306 295.991 C 182.214 295.510,182.140 295.996,182.143 297.070 M164.941 318.629 C 165.317 318.727,165.933 318.727,166.309 318.629 C 166.685 318.530,166.377 318.450,165.625 318.450 C 164.873 318.450,164.565 318.530,164.941 318.629 M164.941 348.327 C 165.532 348.416,166.499 348.416,167.090 348.327 C 167.681 348.237,167.197 348.164,166.016 348.164 C 164.834 348.164,164.351 348.237,164.941 348.327 " stroke="none" fill="#ccb43c" fill-rule="evenodd"></path><path id="path4" d="M126.172 332.544 C 126.172 332.611,126.743 333.183,127.441 333.814 L 128.711 334.961 127.564 333.691 C 126.494 332.508,126.172 332.242,126.172 332.544 " stroke="none" fill="#b0a03c" fill-rule="evenodd"></path></g></svg>