<svg id="svg" version="1.1" xmlns="http://www.w3.org/2000/svg" xmlns:xlink="http://www.w3.org/1999/xlink" width="400" height="245.33333333333334" viewBox="0, 0, 400,245.33333333333334"><g id="svgg"><path id="path0" d="M106.576 78.988 C 106.628 79.073,106.519 79.191,106.333 79.250 C 106.147 79.309,106.038 79.427,106.091 79.512 C 106.143 79.597,106.107 79.667,106.010 79.667 C 105.913 79.667,105.833 79.821,105.833 80.010 C 105.833 80.211,105.760 80.307,105.656 80.243 C 105.558 80.183,105.498 80.234,105.524 80.358 C 105.549 80.482,105.460 80.771,105.327 81.000 C 105.117 81.360,105.083 84.565,105.083 104.500 L 105.083 127.583 105.482 128.393 C 106.077 129.602,106.683 130.105,109.509 131.734 C 110.925 132.550,113.208 133.868,114.583 134.664 C 115.958 135.460,118.621 136.999,120.500 138.083 C 126.902 141.777,128.083 142.458,130.667 143.952 C 132.087 144.773,134.787 146.332,136.667 147.415 C 138.546 148.499,140.946 149.887,142.000 150.501 C 146.334 153.021,146.088 152.917,147.667 152.917 L 149.083 152.917 150.917 151.895 C 152.367 151.087,161.334 145.918,163.750 144.498 C 164.025 144.336,165.225 143.644,166.417 142.960 C 167.608 142.276,170.046 140.871,171.833 139.837 C 173.621 138.804,175.421 137.768,175.833 137.535 C 176.246 137.301,177.033 136.837,177.583 136.503 C 178.133 136.169,178.696 135.845,178.833 135.784 C 178.971 135.724,179.354 135.503,179.685 135.295 C 180.016 135.087,181.103 134.452,182.102 133.884 C 183.100 133.316,184.010 132.769,184.125 132.669 C 184.240 132.569,184.333 132.531,184.333 132.585 C 184.333 132.639,184.652 132.465,185.042 132.199 C 185.431 131.933,186.038 131.580,186.390 131.415 C 186.742 131.249,187.069 131.014,187.116 130.891 C 187.163 130.769,187.254 130.701,187.317 130.740 C 187.568 130.895,187.922 130.522,187.717 130.317 C 187.462 130.062,188.869 130.960,159.000 111.995 C 154.279 108.998,146.629 104.139,142.000 101.198 C 132.291 95.031,119.565 86.950,112.013 82.157 C 107.124 79.054,106.332 78.593,106.576 78.988 M354.667 95.897 C 353.704 96.470,352.092 97.416,351.083 97.999 C 350.075 98.582,349.119 99.170,348.958 99.305 C 348.583 99.623,348.506 108.740,348.875 109.190 C 348.990 109.330,349.871 109.898,350.833 110.454 C 351.796 111.009,353.493 111.997,354.605 112.648 C 357.175 114.155,356.246 114.360,362.070 111.000 C 365.548 108.994,365.167 109.824,365.167 104.255 L 365.167 99.523 364.707 99.196 C 364.283 98.893,360.014 96.387,358.083 95.306 C 356.934 94.662,356.662 94.710,354.667 95.897 M195.417 146.566 C 194.405 146.887,196.738 145.559,171.041 160.437 C 170.192 160.928,168.786 161.743,167.915 162.247 C 167.044 162.751,165.619 163.576,164.748 164.080 C 163.877 164.584,162.434 165.419,161.541 165.935 C 157.540 168.246,156.849 168.698,156.100 169.500 C 155.155 170.510,154.411 172.063,154.174 173.524 C 153.884 175.313,153.946 216.468,154.241 217.861 C 154.971 221.303,156.569 222.595,167.167 228.310 C 175.958 233.050,184.304 230.630,186.130 222.811 C 186.603 220.784,186.568 177.751,186.093 177.403 C 185.481 176.955,180.087 177.069,179.759 177.537 C 179.528 177.868,179.500 180.172,179.499 198.912 C 179.498 221.324,179.526 220.594,178.621 221.943 C 176.808 224.643,173.816 224.522,168.674 221.542 C 165.901 219.935,165.338 219.610,162.583 218.020 C 161.758 217.544,160.990 217.031,160.875 216.879 C 160.711 216.661,160.667 212.107,160.667 195.414 L 160.667 174.225 161.042 173.880 C 161.248 173.691,162.467 172.940,163.750 172.211 C 166.333 170.744,172.046 167.461,174.500 166.031 C 175.371 165.524,177.021 164.571,178.167 163.913 C 181.528 161.981,187.831 158.348,191.333 156.322 C 196.514 153.325,197.402 152.834,197.647 152.834 C 197.868 152.833,199.600 153.787,204.000 156.334 C 207.181 158.176,211.114 160.445,214.250 162.248 C 215.808 163.145,218.058 164.441,219.250 165.130 C 220.442 165.818,222.354 166.922,223.500 167.583 C 224.646 168.244,226.596 169.369,227.833 170.083 C 229.071 170.797,231.058 171.944,232.250 172.631 C 233.442 173.318,234.472 173.964,234.539 174.065 C 234.771 174.415,234.692 216.572,234.458 216.861 C 234.344 217.003,233.612 217.493,232.833 217.949 C 230.992 219.027,226.505 221.628,223.833 223.167 C 223.237 223.510,221.813 224.333,220.667 224.997 C 219.521 225.660,217.796 226.658,216.833 227.213 C 215.871 227.769,214.483 228.574,213.750 229.003 C 213.017 229.432,210.917 230.649,209.083 231.708 C 207.250 232.766,203.991 234.652,201.842 235.899 C 197.602 238.359,197.618 238.353,196.705 237.769 C 195.160 236.779,187.776 232.454,187.514 232.385 C 187.353 232.343,186.505 232.691,185.630 233.159 C 184.755 233.626,183.337 234.259,182.478 234.565 C 179.991 235.450,179.989 235.446,184.898 238.362 C 186.925 239.566,189.783 241.268,191.250 242.145 C 195.478 244.672,197.162 245.112,199.972 244.424 C 201.071 244.154,201.730 243.822,205.500 241.636 C 208.005 240.184,210.122 238.959,211.833 237.971 C 215.254 235.997,227.961 228.631,231.793 226.401 C 232.641 225.907,234.066 225.081,234.959 224.564 C 235.853 224.047,236.979 223.392,237.462 223.108 C 239.506 221.907,240.963 219.792,241.326 217.500 C 241.549 216.091,241.554 175.413,241.331 173.697 C 241.137 172.199,240.457 170.729,239.409 169.539 C 238.616 168.639,238.107 168.313,231.917 164.742 C 227.362 162.116,226.097 161.385,224.418 160.413 C 223.548 159.909,222.103 159.073,221.209 158.556 C 220.315 158.039,218.890 157.214,218.043 156.723 C 217.195 156.232,215.770 155.407,214.876 154.889 C 211.906 153.171,209.385 151.711,205.376 149.388 C 201.669 147.240,200.876 146.822,200.058 146.584 C 199.014 146.279,196.355 146.270,195.417 146.566 M204.583 175.930 C 202.086 176.276,201.391 176.406,200.083 176.768 C 193.374 178.625,189.930 183.818,191.252 190.083 C 192.387 195.467,196.249 197.419,208.583 198.842 C 217.311 199.850,219.587 200.911,219.580 203.971 C 219.572 207.645,216.850 209.215,210.080 209.448 C 201.326 209.750,197.540 207.917,196.754 203.000 C 196.509 201.464,196.563 201.486,193.220 201.538 L 190.286 201.583 189.959 202.022 C 189.652 202.432,189.643 202.568,189.819 204.178 C 190.658 211.896,196.369 215.692,207.531 215.952 C 220.339 216.250,226.905 211.975,226.911 203.333 C 226.915 196.213,223.561 194.033,209.500 192.015 C 199.610 190.595,198.330 190.058,198.338 187.333 C 198.348 183.657,202.564 181.896,209.925 182.493 C 215.463 182.943,217.575 184.459,218.660 188.765 C 218.905 189.736,219.230 189.833,222.226 189.833 C 225.494 189.833,225.599 189.768,225.436 187.848 C 224.900 181.525,220.873 177.577,213.667 176.310 C 211.835 175.987,205.943 175.741,204.583 175.930 " stroke="none" fill="#49973c" fill-rule="evenodd"></path><path id="path1" d="M146.250 56.071 C 145.883 56.190,137.896 60.731,128.500 66.163 C 119.104 71.595,111.154 76.189,110.833 76.372 C 109.209 77.299,108.743 77.575,108.667 77.659 C 108.621 77.709,108.212 77.944,107.759 78.182 C 107.305 78.419,106.915 78.682,106.892 78.765 C 106.869 78.849,109.152 80.369,111.967 82.144 C 114.781 83.919,120.833 87.754,125.417 90.666 C 130.000 93.578,137.350 98.247,141.750 101.041 C 146.150 103.834,153.762 108.668,158.667 111.782 C 163.571 114.897,171.108 119.680,175.417 122.411 C 183.170 127.327,184.407 128.118,186.829 129.703 C 187.978 130.455,188.091 130.496,188.287 130.227 C 188.404 130.067,188.500 129.998,188.500 130.074 C 188.500 130.229,189.412 129.356,189.425 129.189 C 189.429 129.131,189.596 128.823,189.795 128.505 C 190.357 127.609,190.351 127.896,190.299 103.917 C 190.244 78.253,190.372 80.538,188.900 79.127 C 188.151 78.408,150.547 56.612,149.250 56.145 C 148.278 55.794,147.189 55.768,146.250 56.071 " stroke="none" fill="#44843c" fill-rule="evenodd"></path><path id="path2" d="M267.436 0.348 C 266.433 1.137,266.500 -1.067,266.500 31.300 C 266.500 63.088,266.536 61.800,265.626 62.271 C 264.850 62.672,264.575 62.552,259.409 59.562 C 253.256 56.001,252.676 55.794,250.750 56.470 C 249.832 56.793,211.770 78.737,210.833 79.484 C 210.512 79.740,210.025 80.387,209.750 80.921 L 209.250 81.893 209.250 105.072 L 209.250 128.250 209.604 129.015 C 210.249 130.409,210.713 130.700,230.792 142.304 C 252.017 154.569,251.232 154.163,253.040 153.825 C 254.130 153.621,253.406 154.026,274.333 141.924 C 293.793 130.671,294.213 130.406,294.824 128.985 L 295.168 128.185 295.126 71.884 C 295.084 16.324,295.079 15.575,294.756 14.924 C 294.129 13.658,293.333 13.157,281.450 6.542 C 268.418 -0.714,268.653 -0.610,267.436 0.348 M41.549 55.336 C 40.451 55.778,2.148 77.970,1.605 78.479 C 1.250 78.811,0.782 79.458,0.565 79.917 L 0.170 80.750 0.172 111.083 C 0.174 145.575,0.037 142.418,1.570 143.160 C 2.749 143.731,2.564 143.820,15.250 136.572 C 27.701 129.458,27.610 129.515,28.308 128.333 L 28.750 127.583 28.833 112.500 L 28.917 97.417 29.389 96.454 C 30.012 95.186,30.096 95.126,36.090 91.628 C 43.303 87.419,42.943 87.469,47.458 90.066 C 55.986 94.970,56.194 95.111,56.887 96.405 L 57.250 97.083 57.333 112.167 L 57.417 127.250 57.789 128.005 C 58.447 129.340,59.222 129.843,71.118 136.641 C 83.712 143.837,83.587 143.778,84.821 143.134 C 86.345 142.340,86.211 145.669,86.105 111.195 L 86.012 80.807 85.609 79.926 C 85.388 79.442,84.953 78.806,84.644 78.511 C 84.021 77.918,46.052 55.975,44.790 55.479 C 43.949 55.148,42.206 55.071,41.549 55.336 M355.417 55.970 C 353.667 56.628,316.308 78.385,315.386 79.283 C 313.883 80.747,313.989 78.738,314.039 104.842 L 314.083 127.750 314.436 128.500 C 315.036 129.778,315.792 130.315,321.862 133.775 C 325.100 135.621,333.637 140.489,340.833 144.593 C 357.224 153.939,356.338 153.548,358.667 152.473 C 360.469 151.641,382.422 139.320,382.706 138.981 C 383.444 138.100,383.391 136.597,382.594 135.812 C 382.373 135.595,373.843 130.620,363.638 124.757 C 353.433 118.894,344.647 113.843,344.114 113.534 C 342.413 112.546,342.501 113.046,342.501 104.417 C 342.501 97.405,342.521 96.884,342.810 96.410 C 343.286 95.630,355.837 88.500,356.734 88.500 C 357.373 88.500,369.112 94.979,370.141 95.900 C 370.991 96.661,371.000 96.739,371.000 103.008 C 371.000 108.078,371.037 108.943,371.272 109.439 C 371.771 110.491,373.009 111.004,374.113 110.616 C 375.090 110.274,397.674 97.045,398.306 96.445 C 399.598 95.218,399.578 95.349,399.632 88.107 C 399.689 80.654,399.675 80.557,398.360 79.174 C 397.691 78.470,363.223 58.237,359.152 56.159 C 358.133 55.638,356.517 55.557,355.417 55.970 M259.242 92.690 C 262.913 94.811,266.010 96.663,266.125 96.805 C 266.285 97.004,266.333 98.900,266.333 105.000 C 266.333 111.092,266.285 113.000,266.125 113.209 C 265.780 113.660,252.670 121.167,252.226 121.167 C 251.862 121.167,239.196 113.986,238.458 113.362 C 238.188 113.133,238.167 112.522,238.167 104.978 L 238.167 96.841 238.542 96.596 C 240.224 95.496,251.977 88.833,252.236 88.833 C 252.419 88.833,255.572 90.569,259.242 92.690 " stroke="none" fill="#343434" fill-rule="evenodd"></path><path id="path3" d="" stroke="none" fill="#445438" fill-rule="evenodd"></path><path id="path4" d="" stroke="none" fill="#483438" fill-rule="evenodd"></path></g></svg>