<svg id="svg" version="1.1" xmlns="http://www.w3.org/2000/svg" xmlns:xlink="http://www.w3.org/1999/xlink" width="400" height="347.82608695652175" viewBox="0, 0, 400,347.82608695652175"><g id="svgg"><path id="path0" d="M113.375 0.340 C 88.231 5.645,75.723 33.139,80.086 73.511 C 81.322 84.947,82.939 94.280,85.591 105.272 C 85.979 106.881,86.264 108.229,86.225 108.268 C 86.186 108.306,84.946 108.690,83.469 109.119 C 78.313 110.617,70.425 113.227,66.609 114.698 C 65.796 115.011,64.270 115.594,63.217 115.994 C 62.165 116.394,61.070 116.827,60.783 116.955 C 60.496 117.084,59.126 117.657,57.739 118.230 C 51.251 120.907,40.390 126.417,36.730 128.887 C 36.319 129.164,35.942 129.391,35.892 129.391 C 35.842 129.391,34.496 130.264,32.901 131.331 C 8.850 147.415,-0.350 167.028,6.809 186.957 C 7.417 188.651,9.489 192.985,10.158 193.964 C 10.406 194.327,10.609 194.668,10.609 194.722 C 10.609 194.922,13.319 198.747,14.548 200.281 C 18.699 205.464,25.708 211.790,31.304 215.404 C 31.735 215.682,32.126 215.958,32.174 216.017 C 32.295 216.168,36.303 218.721,38.087 219.785 C 43.974 223.295,52.873 227.671,59.739 230.433 C 60.983 230.934,62.235 231.443,62.522 231.566 C 66.282 233.176,77.685 237.045,84.304 238.958 C 85.380 239.269,86.261 239.576,86.261 239.640 C 86.261 239.704,85.824 241.592,85.290 243.835 C 73.843 291.942,79.028 327.336,99.618 341.636 C 102.994 343.980,107.273 345.929,111.580 347.083 L 114.000 347.732 122.174 347.735 C 131.221 347.740,130.831 347.776,136.261 346.411 C 153.525 342.071,175.517 328.363,195.370 309.567 C 196.028 308.944,196.660 308.357,196.775 308.261 C 196.890 308.165,197.657 307.429,198.479 306.625 L 199.975 305.163 202.814 307.858 C 206.805 311.648,210.470 314.922,214.185 318.021 C 214.657 318.414,215.554 319.164,216.178 319.687 C 221.473 324.123,232.146 331.797,236.469 334.277 C 236.870 334.507,238.318 335.358,239.686 336.167 C 249.171 341.779,260.510 346.169,269.130 347.566 C 272.281 348.077,285.450 347.863,287.739 347.264 C 313.141 340.616,324.680 312.984,319.570 271.043 C 318.447 261.824,316.840 252.806,314.767 244.087 C 314.290 242.078,313.857 240.236,313.805 239.993 C 313.711 239.555,313.748 239.539,317.159 238.528 C 331.883 234.167,347.455 227.911,357.304 222.400 C 358.070 221.972,359.087 221.403,359.565 221.136 C 362.099 219.721,364.695 218.096,368.854 215.323 C 382.573 206.177,392.418 193.295,394.775 181.409 C 399.933 155.397,378.418 131.730,334.522 115.129 C 328.791 112.961,319.825 109.991,314.826 108.604 C 314.228 108.438,313.739 108.240,313.739 108.163 C 313.739 108.087,314.086 106.591,314.510 104.838 C 323.814 66.370,322.504 35.029,310.847 17.163 C 310.234 16.225,309.658 15.364,309.566 15.250 C 309.473 15.137,308.913 14.417,308.321 13.652 C 303.496 7.417,296.278 2.778,288.095 0.654 L 286.000 0.110 278.311 0.045 C 269.352 -0.031,269.021 0.005,262.522 1.736 C 255.081 3.717,243.193 9.100,236.730 13.414 C 236.319 13.688,235.946 13.913,235.902 13.913 C 235.116 13.913,221.397 23.778,216.700 27.720 C 215.890 28.400,215.077 29.074,214.894 29.217 C 212.399 31.174,205.566 37.288,201.783 40.949 L 199.993 42.682 198.475 41.199 C 197.116 39.872,194.894 37.766,194.365 37.304 C 194.255 37.209,193.385 36.420,192.431 35.553 C 190.965 34.220,186.180 30.079,185.108 29.216 C 184.929 29.072,184.117 28.398,183.304 27.718 C 166.136 13.368,147.041 3.239,131.875 0.437 C 128.706 -0.148,116.005 -0.215,113.375 0.340 M126.382 16.963 C 136.420 18.270,148.879 23.916,161.826 33.022 C 169.863 38.675,179.140 46.399,186.554 53.609 L 187.977 54.993 185.575 57.627 C 183.361 60.054,179.445 64.531,177.565 66.786 C 177.135 67.302,176.505 68.040,176.166 68.427 C 175.827 68.814,175.138 69.639,174.636 70.261 C 174.135 70.883,173.586 71.548,173.417 71.739 C 172.032 73.309,164.675 82.737,161.745 86.696 C 160.471 88.417,159.135 90.217,158.778 90.696 C 157.563 92.320,155.262 95.564,155.186 95.761 C 155.116 95.941,154.561 96.031,152.087 96.267 C 137.552 97.650,120.193 100.332,106.381 103.328 C 104.582 103.719,103.074 104.001,103.029 103.956 C 101.901 102.829,97.609 78.222,96.953 69.130 C 96.891 68.270,96.806 67.370,96.764 67.130 C 96.549 65.918,96.489 55.126,96.681 52.174 C 97.027 46.842,97.989 40.449,98.888 37.498 C 99.467 35.600,100.550 32.406,100.813 31.826 C 106.181 19.963,114.095 15.363,126.382 16.963 M282.287 17.036 C 303.340 20.666,309.405 54.353,297.551 101.817 C 296.927 104.318,297.153 104.092,295.621 103.744 C 288.391 102.097,278.863 100.361,267.913 98.695 C 263.364 98.003,251.525 96.569,247.739 96.252 C 244.876 96.012,245.198 96.211,243.217 93.448 C 241.305 90.783,237.560 85.706,237.402 85.565 C 237.348 85.517,237.114 85.204,236.882 84.870 C 235.690 83.151,228.155 73.601,225.150 70.000 C 220.811 64.801,214.899 58.030,212.843 55.905 L 211.994 55.026 213.606 53.467 C 239.718 28.208,266.055 14.237,282.287 17.036 M201.421 68.913 C 203.785 71.514,207.681 75.953,209.245 77.826 C 209.565 78.209,209.995 78.717,210.202 78.957 C 210.409 79.196,211.368 80.350,212.334 81.521 C 213.299 82.692,214.203 83.788,214.343 83.956 C 215.913 85.844,222.048 93.716,222.292 94.157 C 222.469 94.477,222.411 94.485,220.673 94.376 C 212.858 93.889,192.856 93.835,182.021 94.272 C 179.641 94.369,177.661 94.415,177.622 94.376 C 177.433 94.186,185.707 83.789,191.207 77.304 C 194.895 72.957,199.788 67.478,199.985 67.478 C 200.058 67.478,200.704 68.124,201.421 68.913 M217.304 111.391 C 217.878 111.433,220.304 111.553,222.696 111.657 C 225.087 111.760,228.687 111.957,230.696 112.094 C 232.704 112.231,234.593 112.344,234.892 112.345 C 235.418 112.348,241.218 120.587,243.402 124.435 C 243.511 124.626,244.459 126.152,245.510 127.826 C 253.588 140.694,261.396 154.606,268.125 168.120 L 270.998 173.892 269.054 177.859 C 263.582 189.022,253.241 207.798,248.431 215.304 C 248.033 215.926,247.518 216.762,247.288 217.161 C 247.058 217.561,246.087 219.124,245.130 220.635 C 244.174 222.145,243.352 223.462,243.304 223.560 C 243.225 223.723,240.273 228.202,236.812 233.410 L 235.470 235.429 233.779 235.541 C 232.096 235.651,224.720 236.080,221.565 236.251 C 206.800 237.049,185.306 236.771,166.224 235.536 L 164.536 235.427 161.678 231.133 C 157.447 224.776,150.419 213.630,148.737 210.609 C 148.497 210.178,148.243 209.748,148.173 209.652 C 147.991 209.406,142.840 200.460,142.216 199.304 C 141.931 198.778,141.091 197.252,140.348 195.913 C 137.984 191.653,134.846 185.654,131.866 179.700 L 128.974 173.923 131.865 168.135 C 136.924 158.007,146.015 141.391,149.302 136.261 C 149.608 135.783,150.132 134.922,150.465 134.348 C 152.326 131.145,157.658 122.738,161.633 116.739 C 164.422 112.529,164.566 112.348,165.097 112.346 C 165.403 112.345,166.709 112.269,168.000 112.176 C 172.485 111.855,180.461 111.473,184.957 111.365 C 187.443 111.305,189.517 111.218,189.565 111.172 C 189.668 111.072,215.776 111.278,217.304 111.391 M142.326 114.826 C 142.255 114.946,141.768 115.709,141.245 116.522 C 140.722 117.335,139.886 118.665,139.388 119.478 C 138.891 120.291,137.950 121.817,137.299 122.870 C 132.755 130.211,125.449 143.059,121.366 150.888 C 119.913 153.674,119.885 153.695,119.335 152.367 C 114.928 141.736,107.826 122.276,107.826 120.832 C 107.826 120.255,125.787 116.896,137.785 115.229 C 142.847 114.526,142.486 114.558,142.326 114.826 M264.348 115.565 C 272.980 116.788,280.591 118.122,288.476 119.793 L 292.344 120.612 290.253 126.849 C 287.453 135.202,284.363 143.425,280.664 152.367 C 280.104 153.723,280.113 153.728,278.867 151.340 C 277.600 148.911,276.929 147.662,274.124 142.522 C 273.028 140.513,272.000 138.674,271.840 138.435 C 271.679 138.196,271.455 137.804,271.341 137.565 C 271.226 137.326,271.058 137.013,270.966 136.870 C 270.874 136.726,270.378 135.865,269.863 134.957 C 268.363 132.310,264.736 126.152,263.564 124.261 C 262.970 123.304,261.836 121.465,261.042 120.174 C 260.249 118.883,259.195 117.200,258.702 116.435 C 258.208 115.670,257.744 114.944,257.672 114.822 C 257.571 114.652,257.695 114.623,258.205 114.695 C 258.570 114.747,261.335 115.138,264.348 115.565 M93.137 131.435 C 94.321 134.994,95.479 138.396,95.710 138.996 C 95.940 139.596,96.853 142.043,97.737 144.435 C 100.638 152.279,103.845 160.117,107.838 169.128 L 109.962 173.921 108.121 178.047 C 107.109 180.317,106.200 182.389,106.101 182.653 C 106.002 182.916,105.754 183.498,105.551 183.945 C 101.589 192.641,91.130 220.743,91.130 222.692 C 91.130 223.049,91.205 223.062,88.163 222.163 C 77.033 218.873,66.655 214.988,57.964 210.858 C 57.027 210.413,56.000 209.936,55.682 209.799 C 53.425 208.826,44.261 203.504,41.490 201.559 C 16.079 183.714,15.098 166.020,38.541 148.407 C 48.513 140.915,65.875 132.538,81.391 127.730 C 86.816 126.050,90.718 124.891,90.840 124.925 C 90.919 124.948,91.953 127.877,93.137 131.435 M311.886 125.663 C 357.772 139.483,382.727 159.665,377.721 178.907 C 375.928 185.798,369.342 193.880,360.348 200.227 C 359.248 201.003,358.309 201.681,358.261 201.733 C 358.103 201.904,352.901 205.217,352.789 205.217 C 352.753 205.217,352.032 205.617,351.188 206.105 C 344.995 209.685,336.812 213.443,327.391 217.034 C 322.051 219.070,309.284 223.103,309.034 222.833 C 308.965 222.757,308.460 221.287,307.912 219.565 C 303.990 207.239,297.356 190.050,292.005 178.348 C 291.830 177.965,291.358 176.909,290.956 176.000 C 290.555 175.091,290.146 174.250,290.048 174.130 C 289.927 173.982,289.928 173.844,290.050 173.696 C 290.524 173.120,295.863 160.779,298.645 153.826 C 302.042 145.337,304.258 139.262,307.148 130.522 C 309.183 124.366,309.006 124.870,309.142 124.870 C 309.202 124.870,310.437 125.227,311.886 125.663 M196.522 139.156 C 195.210 139.292,194.214 139.463,191.509 140.015 C 189.231 140.480,184.178 142.575,182.087 143.922 C 181.657 144.199,181.125 144.523,180.905 144.642 C 175.535 147.542,169.245 155.678,166.888 162.772 C 163.702 172.366,165.024 184.438,170.083 191.935 C 170.372 192.363,170.609 192.747,170.609 192.789 C 170.609 193.420,174.990 198.525,176.975 200.207 C 199.536 219.322,233.363 204.777,234.890 175.304 C 235.972 154.418,217.467 136.984,196.522 139.156 M121.397 197.000 C 126.475 206.746,133.634 219.163,140.324 229.826 C 141.464 231.643,142.382 233.147,142.364 233.168 C 142.346 233.188,141.826 233.133,141.209 233.045 C 140.592 232.956,138.600 232.678,136.783 232.427 C 127.451 231.137,110.183 228.028,107.884 227.224 C 107.655 227.143,107.737 226.871,109.973 220.261 C 113.033 211.218,119.512 194.261,119.908 194.261 C 119.942 194.261,120.612 195.493,121.397 197.000 M281.086 196.435 C 284.732 205.175,292.174 225.666,292.174 226.963 C 292.174 227.564,276.763 230.501,264.435 232.248 C 261.374 232.682,258.567 233.080,258.197 233.133 L 257.524 233.228 257.894 232.657 C 258.298 232.034,261.847 226.341,263.562 223.565 C 264.153 222.609,265.867 219.713,267.371 217.130 C 268.875 214.548,270.178 212.317,270.268 212.174 C 270.357 212.030,270.575 211.639,270.752 211.304 C 270.929 210.970,271.699 209.600,272.463 208.261 C 273.798 205.920,275.290 203.210,276.867 200.261 C 277.277 199.496,277.865 198.400,278.174 197.826 C 278.484 197.252,279.028 196.205,279.382 195.500 C 280.131 194.008,280.057 193.968,281.086 196.435 M106.087 244.443 C 120.111 247.458,135.536 249.870,150.522 251.393 C 154.581 251.806,154.893 251.862,155.217 252.240 C 155.409 252.463,156.460 253.889,157.554 255.409 C 166.788 268.243,178.658 282.892,187.003 291.754 L 188.007 292.819 185.857 294.888 C 183.969 296.705,183.044 297.559,179.921 300.374 C 172.935 306.670,161.841 315.187,156.283 318.522 C 155.965 318.713,154.655 319.503,153.374 320.278 C 123.052 338.600,103.313 333.645,97.995 306.375 C 95.053 291.292,96.866 267.233,102.589 245.391 C 102.677 245.057,102.797 244.567,102.856 244.304 C 102.987 243.720,102.660 243.706,106.087 244.443 M297.043 243.906 C 297.043 243.950,297.243 244.776,297.487 245.741 C 301.547 261.803,303.695 278.374,303.427 291.565 C 302.668 328.849,285.033 340.185,253.130 323.897 C 247.915 321.234,237.464 314.692,235.043 312.574 C 234.948 312.490,234.048 311.802,233.043 311.046 C 226.912 306.428,218.883 299.532,213.522 294.281 L 212.001 292.791 212.930 291.830 C 217.912 286.672,228.792 273.623,235.626 264.609 C 237.076 262.696,238.335 261.042,238.423 260.934 C 238.511 260.826,239.881 258.947,241.467 256.760 C 243.053 254.572,244.526 252.568,244.741 252.306 C 245.126 251.834,245.177 251.825,249.565 251.382 C 256.819 250.650,263.983 249.727,272.435 248.436 C 278.464 247.516,292.083 244.955,295.478 244.104 C 296.508 243.846,297.043 243.778,297.043 243.906 M189.217 253.759 C 197.531 253.960,210.071 253.870,217.979 253.553 C 220.359 253.457,222.337 253.409,222.373 253.446 C 222.515 253.587,215.999 261.886,211.492 267.304 C 207.368 272.263,200.248 280.348,200.006 280.348 C 199.543 280.348,186.811 265.515,182.841 260.350 C 182.730 260.205,181.947 259.208,181.102 258.133 C 179.302 255.845,177.889 253.979,177.672 253.603 C 177.536 253.368,177.731 253.350,179.324 253.450 C 180.318 253.512,184.770 253.651,189.217 253.759 " stroke="none" fill="#64dcfc" fill-rule="evenodd"></path><path id="path1" d="" stroke="none" fill="#68dcfc" fill-rule="evenodd"></path><path id="path2" d="" stroke="none" fill="#68dcfc" fill-rule="evenodd"></path><path id="path3" d="" stroke="none" fill="#68dcfc" fill-rule="evenodd"></path><path id="path4" d="" stroke="none" fill="#68dcfc" fill-rule="evenodd"></path></g></svg>